<svg width="314" height="261" viewBox="0 0 314 261" fill="none" xmlns="http://www.w3.org/2000/svg">
<g filter="url(#filter0_dd_2_281)">
<rect x="35.3535" y="29.0936" width="242.315" height="173.176" rx="7.56177" fill="white" shape-rendering="crispEdges"/>
<g clip-path="url(#clip0_2_281)">
<path d="M47.6975 51.6364C47.1468 51.6364 46.6621 51.5317 46.2433 51.3223C45.8322 51.1129 45.5143 50.8182 45.2893 50.4382C45.0644 50.0581 44.952 49.6199 44.952 49.1236V48.2976C44.952 48.22 44.9907 48.1813 45.0683 48.1813H45.9525C46.03 48.1813 46.0688 48.22 46.0688 48.2976V49.1236C46.0688 49.5889 46.2161 49.9651 46.5109 50.252C46.8056 50.5312 47.2011 50.6708 47.6975 50.6708C48.1783 50.6708 48.57 50.5312 48.8725 50.252C49.1749 49.9651 49.3262 49.5889 49.3262 49.1236V43.5162C49.3262 43.4387 49.3649 43.3999 49.4425 43.3999H50.3266C50.4042 43.3999 50.443 43.4387 50.443 43.5162V49.1236C50.443 49.6199 50.3266 50.0581 50.094 50.4382C49.8691 50.8182 49.5472 51.1129 49.1284 51.3223C48.7096 51.5317 48.2326 51.6364 47.6975 51.6364ZM55.9584 45.7382C55.9584 45.6607 55.9972 45.6219 56.0748 45.6219H56.9473C57.0248 45.6219 57.0636 45.6607 57.0636 45.7382V51.427C57.0636 51.5046 57.0248 51.5433 56.9473 51.5433H56.0748C55.9972 51.5433 55.9584 51.5046 55.9584 51.427V50.9966C55.9584 50.981 55.9507 50.9733 55.9352 50.9733C55.9274 50.9655 55.9158 50.9694 55.9003 50.9849C55.59 51.4115 55.1131 51.6248 54.4694 51.6248C54.0893 51.6248 53.7364 51.5511 53.4107 51.4037C53.0927 51.2564 52.8368 51.0392 52.6429 50.7523C52.449 50.4653 52.3521 50.1163 52.3521 49.7052V45.7382C52.3521 45.6607 52.3908 45.6219 52.4684 45.6219H53.3409C53.4185 45.6219 53.4572 45.6607 53.4572 45.7382V49.3562C53.4572 49.7595 53.5619 50.0775 53.7713 50.3102C53.9885 50.5429 54.291 50.6592 54.6788 50.6592C55.0665 50.6592 55.3768 50.5429 55.6094 50.3102C55.8421 50.0698 55.9584 49.7518 55.9584 49.3562V45.7382ZM61.5552 45.5404C62.1911 45.5404 62.6952 45.7266 63.0675 46.0989C63.4398 46.4634 63.6259 46.9597 63.6259 47.5879V51.427C63.6259 51.5046 63.5871 51.5433 63.5096 51.5433H62.6254C62.5479 51.5433 62.5091 51.5046 62.5091 51.427V47.809C62.5091 47.4212 62.3966 47.1071 62.1717 46.8667C61.9468 46.6262 61.6482 46.506 61.276 46.506C60.9114 46.506 60.6128 46.6262 60.3802 46.8667C60.1475 47.1071 60.0312 47.4173 60.0312 47.7973V51.427C60.0312 51.5046 59.9924 51.5433 59.9148 51.5433H59.0307C58.9531 51.5433 58.9144 51.5046 58.9144 51.427V45.7382C58.9144 45.6607 58.9531 45.6219 59.0307 45.6219H59.9148C59.9924 45.6219 60.0312 45.6607 60.0312 45.7382V46.157C60.0312 46.1725 60.035 46.1842 60.0428 46.1919C60.0583 46.1997 60.0699 46.1958 60.0777 46.1803C60.4112 45.7537 60.9037 45.5404 61.5552 45.5404ZM70.1655 47.8439C70.1965 48.1619 70.2081 48.5186 70.2004 48.9142C70.2004 48.9917 70.1616 49.0305 70.0841 49.0305H66.373C66.3419 49.0305 66.3264 49.046 66.3264 49.077C66.3264 49.3407 66.3497 49.5424 66.3962 49.682C66.4815 49.9922 66.6522 50.2365 66.9081 50.4149C67.1718 50.5855 67.5014 50.6708 67.897 50.6708C68.4709 50.6708 68.913 50.4343 69.2232 49.9612C69.262 49.8836 69.3124 49.872 69.3744 49.9263L70.0375 50.3684C70.0918 50.4149 70.1034 50.4653 70.0724 50.5196C69.8553 50.8686 69.545 51.1439 69.1417 51.3456C68.7462 51.5472 68.2964 51.648 67.7923 51.648C67.2261 51.648 66.7491 51.5239 66.3613 51.2758C65.9736 51.0276 65.6827 50.6747 65.4888 50.2171C65.3027 49.7595 65.2096 49.205 65.2096 48.5535C65.2096 47.9874 65.2523 47.5569 65.3376 47.2622C65.4772 46.7271 65.7564 46.3044 66.1752 45.9942C66.594 45.6839 67.102 45.5288 67.6992 45.5288C68.4825 45.5288 69.0681 45.7266 69.4558 46.1221C69.8436 46.5099 70.0802 47.0838 70.1655 47.8439ZM67.6992 46.4944C67.3657 46.4944 67.0904 46.5797 66.8732 46.7503C66.6561 46.9132 66.5087 47.1342 66.4311 47.4134C66.3768 47.5841 66.3419 47.8012 66.3264 48.0649C66.3264 48.0959 66.3419 48.1115 66.373 48.1115H69.037C69.0681 48.1115 69.0836 48.0959 69.0836 48.0649C69.0681 47.809 69.0448 47.619 69.0138 47.4949C68.9362 47.1924 68.7811 46.952 68.5484 46.7736C68.3235 46.5875 68.0404 46.4944 67.6992 46.4944ZM75.6487 50.5196C75.6409 50.5351 75.6409 50.5506 75.6487 50.5661C75.6564 50.5739 75.6681 50.5778 75.6836 50.5778H79.1853C79.2628 50.5778 79.3016 50.6165 79.3016 50.6941V51.427C79.3016 51.5046 79.2628 51.5433 79.1853 51.5433H74.3108C74.2333 51.5433 74.1945 51.5046 74.1945 51.427V50.7174C74.1945 50.6631 74.2139 50.6165 74.2527 50.5778C74.5164 50.2753 75.1213 49.5656 76.0675 48.4488L76.8702 47.4832C77.5915 46.6224 77.9521 45.9554 77.9521 45.4823C77.9521 45.1178 77.828 44.8269 77.5798 44.6098C77.3394 44.3849 77.0176 44.2724 76.6143 44.2724C76.211 44.2724 75.8891 44.3849 75.6487 44.6098C75.4083 44.8347 75.2919 45.1294 75.2997 45.4939V45.8429C75.2997 45.9205 75.2609 45.9593 75.1833 45.9593H74.2876C74.21 45.9593 74.1712 45.9205 74.1712 45.8429V45.3427C74.1867 44.9394 74.2992 44.5826 74.5086 44.2724C74.7258 43.9622 75.0166 43.7256 75.3811 43.5628C75.7456 43.3921 76.1567 43.3068 76.6143 43.3068C77.1106 43.3068 77.5449 43.3999 77.9172 43.586C78.2895 43.7722 78.5764 44.0281 78.7781 44.3538C78.9797 44.6796 79.0806 45.048 79.0806 45.459C79.0806 46.1027 78.7316 46.8628 78.0336 47.7392C77.7233 48.1347 77.3549 48.5807 76.9284 49.077C76.5018 49.5656 76.0752 50.0465 75.6487 50.5196ZM83.396 51.6597C82.6126 51.6597 81.9883 51.4386 81.523 50.9966C81.0654 50.5467 80.8366 49.9457 80.8366 49.1934V45.7499C80.8366 44.9976 81.0654 44.4004 81.523 43.9583C81.9883 43.5162 82.6126 43.2952 83.396 43.2952C84.1793 43.2952 84.8036 43.5162 85.269 43.9583C85.742 44.4004 85.9786 44.9976 85.9786 45.7499V49.1934C85.9786 49.9457 85.742 50.5467 85.269 50.9966C84.8036 51.4386 84.1793 51.6597 83.396 51.6597ZM83.396 50.6941C83.8458 50.6941 84.2025 50.5661 84.4662 50.3102C84.7299 50.0465 84.8618 49.6975 84.8618 49.2632V45.7033C84.8618 45.269 84.7299 44.9239 84.4662 44.6679C84.2025 44.4042 83.8458 44.2724 83.396 44.2724C82.9616 44.2724 82.6126 44.4042 82.3489 44.6679C82.0852 44.9239 81.9534 45.269 81.9534 45.7033V49.2632C81.9534 49.6975 82.0852 50.0465 82.3489 50.3102C82.6126 50.5661 82.9616 50.6941 83.396 50.6941ZM89.008 50.5196C89.0003 50.5351 89.0003 50.5506 89.008 50.5661C89.0158 50.5739 89.0274 50.5778 89.0429 50.5778H92.5446C92.6222 50.5778 92.661 50.6165 92.661 50.6941V51.427C92.661 51.5046 92.6222 51.5433 92.5446 51.5433H87.6702C87.5926 51.5433 87.5538 51.5046 87.5538 51.427V50.7174C87.5538 50.6631 87.5732 50.6165 87.612 50.5778C87.8757 50.2753 88.4806 49.5656 89.4268 48.4488L90.2296 47.4832C90.9508 46.6224 91.3115 45.9554 91.3115 45.4823C91.3115 45.1178 91.1874 44.8269 90.9392 44.6098C90.6988 44.3849 90.3769 44.2724 89.9736 44.2724C89.5703 44.2724 89.2485 44.3849 89.008 44.6098C88.7676 44.8347 88.6513 45.1294 88.659 45.4939V45.8429C88.659 45.9205 88.6202 45.9593 88.5427 45.9593H87.6469C87.5694 45.9593 87.5306 45.9205 87.5306 45.8429V45.3427C87.5461 44.9394 87.6585 44.5826 87.8679 44.2724C88.0851 43.9622 88.3759 43.7256 88.7405 43.5628C89.105 43.3921 89.516 43.3068 89.9736 43.3068C90.47 43.3068 90.9043 43.3999 91.2766 43.586C91.6488 43.7722 91.9358 44.0281 92.1374 44.3538C92.3391 44.6796 92.4399 45.048 92.4399 45.459C92.4399 46.1027 92.0909 46.8628 91.3929 47.7392C91.0827 48.1347 90.7143 48.5807 90.2877 49.077C89.8612 49.5656 89.4346 50.0465 89.008 50.5196ZM95.3274 43.4348C95.3739 43.4115 95.4243 43.3999 95.4786 43.3999H96.3977C96.4752 43.3999 96.514 43.4387 96.514 43.5162V51.427C96.514 51.5046 96.4752 51.5433 96.3977 51.5433H95.5135C95.436 51.5433 95.3972 51.5046 95.3972 51.427V44.5981C95.3972 44.5826 95.3894 44.571 95.3739 44.5632C95.3662 44.5555 95.3545 44.5555 95.339 44.5632L94.1175 44.982C94.102 44.9898 94.0826 44.9937 94.0593 44.9937C94.0128 44.9937 93.9857 44.9627 93.9779 44.9006L93.9314 44.2375C93.9314 44.1599 93.9546 44.1134 94.0012 44.0979L95.3274 43.4348Z" fill="#254B45"/>
<path d="M106.206 46.5434C106.206 46.3846 106.151 46.2554 106.022 46.1335L103.19 43.3643C103.094 43.2646 102.975 43.2166 102.831 43.2166C102.547 43.2166 102.315 43.4455 102.315 43.7298C102.315 43.8701 102.374 43.9994 102.477 44.1028L104.988 46.5397L102.477 48.9839C102.374 49.0836 102.315 49.2129 102.315 49.3569C102.315 49.6412 102.547 49.8701 102.831 49.8701C102.972 49.8701 103.094 49.8221 103.19 49.7224L106.022 46.9532C106.151 46.8313 106.206 46.6984 106.206 46.5434Z" fill="#254B45"/>
</g>
<path d="M238.697 46.5432C238.697 46.742 238.771 46.9124 238.93 47.0601L243.349 51.3886C243.474 51.5135 243.633 51.5817 243.821 51.5817C244.195 51.5817 244.496 51.2863 244.496 50.9057C244.496 50.7183 244.417 50.5535 244.292 50.4229L240.31 46.5432L244.292 42.6634C244.417 42.5328 244.496 42.3624 244.496 42.1806C244.496 41.8 244.195 41.5046 243.821 41.5046C243.633 41.5046 243.474 41.5728 243.349 41.6978L238.93 46.0206C238.771 46.1739 238.697 46.3444 238.697 46.5432Z" fill="#254B45"/>
<path d="M268.362 46.5433C268.357 46.3445 268.283 46.1741 268.129 46.0207L263.71 41.6979C263.579 41.5729 263.426 41.5048 263.239 41.5048C262.858 41.5048 262.563 41.8001 262.563 42.1807C262.563 42.3625 262.636 42.5329 262.767 42.6636L266.743 46.5433L262.767 50.423C262.636 50.5537 262.563 50.7184 262.563 50.9059C262.563 51.2864 262.858 51.5818 263.239 51.5818C263.42 51.5818 263.579 51.5137 263.71 51.3887L268.129 47.0602C268.288 46.9125 268.362 46.7421 268.362 46.5433Z" fill="#254B45"/>
<path d="M48.3923 70.7283C47.8226 70.7283 47.3714 70.5998 47.0387 70.3427C46.711 70.0856 46.5472 69.7428 46.5472 69.3143V69.0799C46.5472 69.0295 46.5724 69.0043 46.6228 69.0043H46.9933C47.0437 69.0043 47.0689 69.0295 47.0689 69.0799V69.284C47.0689 69.5764 47.1899 69.8134 47.4319 69.9948C47.6739 70.1713 48.0091 70.2595 48.4376 70.2595C48.8258 70.2595 49.1207 70.1789 49.3224 70.0175C49.524 69.8512 49.6248 69.6319 49.6248 69.3597C49.6248 69.1832 49.5769 69.032 49.4812 68.906C49.3904 68.7799 49.2467 68.6615 49.0501 68.5506C48.8586 68.4396 48.5863 68.3111 48.2335 68.1649C47.8554 68.0137 47.5605 67.8826 47.3487 67.7717C47.142 67.6557 46.9732 67.5095 46.8421 67.3331C46.7161 67.1516 46.6531 66.9248 46.6531 66.6525C46.6531 66.2291 46.7992 65.9014 47.0916 65.6695C47.3891 65.4326 47.7949 65.3141 48.3091 65.3141C48.8687 65.3141 49.3098 65.4452 49.6324 65.7073C49.955 65.9695 50.1163 66.3173 50.1163 66.7508V66.9172C50.1163 66.9676 50.0911 66.9928 50.0407 66.9928H49.6626C49.6122 66.9928 49.587 66.9676 49.587 66.9172V66.7811C49.587 66.4887 49.4711 66.2493 49.2392 66.0627C49.0123 65.8762 48.6947 65.7829 48.2864 65.7829C47.9285 65.7829 47.6537 65.856 47.4622 66.0022C47.2706 66.1484 47.1748 66.3602 47.1748 66.6374C47.1748 66.8189 47.2202 66.9701 47.3109 67.0911C47.4067 67.2071 47.5403 67.3104 47.7117 67.4012C47.8881 67.4869 48.1578 67.6003 48.5208 67.7414C48.8888 67.8927 49.1837 68.0338 49.4055 68.1649C49.6324 68.296 49.8139 68.4573 49.95 68.6489C50.0911 68.8354 50.1617 69.0648 50.1617 69.337C50.1617 69.7604 50.0054 70.0982 49.6929 70.3503C49.3803 70.6023 48.9468 70.7283 48.3923 70.7283ZM52.9746 70.7283C52.6217 70.7283 52.3091 70.6578 52.0369 70.5166C51.7647 70.3755 51.553 70.1789 51.4017 69.9268C51.2505 69.6697 51.1749 69.3723 51.1749 69.0345V65.4502C51.1749 65.3998 51.2001 65.3746 51.2505 65.3746H51.6361C51.6866 65.3746 51.7118 65.3998 51.7118 65.4502V69.0496C51.7118 69.4076 51.8277 69.6999 52.0596 69.9268C52.2915 70.1486 52.5965 70.2595 52.9746 70.2595C53.3527 70.2595 53.6577 70.1486 53.8896 69.9268C54.1214 69.6999 54.2374 69.4076 54.2374 69.0496V65.4502C54.2374 65.3998 54.2626 65.3746 54.313 65.3746H54.6987C54.7491 65.3746 54.7743 65.3998 54.7743 65.4502V69.0345C54.7743 69.3723 54.6987 69.6697 54.5474 69.9268C54.4012 70.1789 54.192 70.3755 53.9198 70.5166C53.6476 70.6578 53.3325 70.7283 52.9746 70.7283ZM59.2466 65.4502C59.2466 65.3998 59.2718 65.3746 59.3222 65.3746H59.7079C59.7583 65.3746 59.7835 65.3998 59.7835 65.4502V70.5922C59.7835 70.6426 59.7583 70.6678 59.7079 70.6678H59.3298C59.2945 70.6678 59.2642 70.6502 59.239 70.6149L56.6605 66.4181C56.6554 66.403 56.6479 66.398 56.6378 66.403C56.6277 66.403 56.6227 66.4106 56.6227 66.4257L56.6302 70.5922C56.6302 70.6426 56.605 70.6678 56.5546 70.6678H56.169C56.1185 70.6678 56.0933 70.6426 56.0933 70.5922V65.4502C56.0933 65.3998 56.1185 65.3746 56.169 65.3746H56.547C56.5823 65.3746 56.6126 65.3922 56.6378 65.4275L59.2163 69.6243C59.2214 69.6394 59.229 69.647 59.239 69.647C59.2491 69.642 59.2542 69.6319 59.2542 69.6168L59.2466 65.4502Z" fill="#3C3C43" fill-opacity="0.3"/>
<path d="M83.2753 65.4275C83.3005 65.3922 83.3308 65.3746 83.3661 65.3746H83.7593C83.8097 65.3746 83.8349 65.3998 83.8349 65.4502V70.5922C83.8349 70.6426 83.8097 70.6678 83.7593 70.6678H83.3736C83.3232 70.6678 83.298 70.6426 83.298 70.5922V66.3879C83.298 66.3728 83.293 66.3627 83.2829 66.3576C83.2728 66.3526 83.2652 66.3576 83.2602 66.3728L82.0276 68.2632C82.0024 68.2985 81.9722 68.3161 81.9369 68.3161H81.7403C81.705 68.3161 81.6747 68.301 81.6495 68.2708L80.417 66.3954C80.4119 66.3803 80.4044 66.3753 80.3943 66.3803C80.3842 66.3854 80.3792 66.3954 80.3792 66.4106V70.5922C80.3792 70.6426 80.354 70.6678 80.3035 70.6678H79.9179C79.8675 70.6678 79.8423 70.6426 79.8423 70.5922V65.4502C79.8423 65.3998 79.8675 65.3746 79.9179 65.3746H80.3111C80.3514 65.3746 80.3817 65.3897 80.4018 65.42L81.8235 67.5751C81.8285 67.5801 81.8361 67.5826 81.8461 67.5826C81.8562 67.5826 81.8638 67.5801 81.8688 67.5751L83.2753 65.4275ZM86.8357 70.7283C86.4778 70.7283 86.1627 70.6552 85.8905 70.509C85.6183 70.3629 85.4066 70.1587 85.2553 69.8965C85.1091 69.6294 85.036 69.3219 85.036 68.974V67.0684C85.036 66.7206 85.1091 66.4156 85.2553 66.1535C85.4066 65.8863 85.6183 65.6796 85.8905 65.5334C86.1627 65.3872 86.4778 65.3141 86.8357 65.3141C87.1937 65.3141 87.5087 65.3872 87.781 65.5334C88.0582 65.6796 88.27 65.8863 88.4161 66.1535C88.5674 66.4156 88.643 66.7206 88.643 67.0684V68.974C88.643 69.3219 88.5674 69.6294 88.4161 69.8965C88.27 70.1587 88.0582 70.3629 87.781 70.509C87.5087 70.6552 87.1937 70.7283 86.8357 70.7283ZM86.8357 70.2671C87.2189 70.2671 87.5264 70.1511 87.7583 69.9192C87.9902 69.6873 88.1061 69.3798 88.1061 68.9967V67.0609C88.1061 66.6778 87.9902 66.3702 87.7583 66.1383C87.5264 65.9014 87.2189 65.7829 86.8357 65.7829C86.4576 65.7829 86.1527 65.9014 85.9208 66.1383C85.6889 66.3702 85.5729 66.6778 85.5729 67.0609V68.9967C85.5729 69.3798 85.6889 69.6873 85.9208 69.9192C86.1527 70.1511 86.4576 70.2671 86.8357 70.2671ZM93.0142 65.4502C93.0142 65.3998 93.0394 65.3746 93.0899 65.3746H93.4755C93.5259 65.3746 93.5511 65.3998 93.5511 65.4502V70.5922C93.5511 70.6426 93.5259 70.6678 93.4755 70.6678H93.0974C93.0621 70.6678 93.0319 70.6502 93.0067 70.6149L90.4281 66.4181C90.4231 66.403 90.4155 66.398 90.4054 66.403C90.3953 66.403 90.3903 66.4106 90.3903 66.4257L90.3979 70.5922C90.3979 70.6426 90.3727 70.6678 90.3222 70.6678H89.9366C89.8862 70.6678 89.861 70.6426 89.861 70.5922V65.4502C89.861 65.3998 89.8862 65.3746 89.9366 65.3746H90.3147C90.35 65.3746 90.3802 65.3922 90.4054 65.4275L92.984 69.6243C92.989 69.6394 92.9966 69.647 93.0067 69.647C93.0168 69.642 93.0218 69.6319 93.0218 69.6168L93.0142 65.4502Z" fill="#3C3C43" fill-opacity="0.3"/>
<path d="M119.911 65.3746C119.962 65.3746 119.987 65.3998 119.987 65.4502V65.7754C119.987 65.8258 119.962 65.851 119.911 65.851H118.429C118.409 65.851 118.399 65.8611 118.399 65.8812V70.5922C118.399 70.6426 118.374 70.6678 118.323 70.6678H117.938C117.887 70.6678 117.862 70.6426 117.862 70.5922V65.8812C117.862 65.8611 117.852 65.851 117.832 65.851H116.41C116.36 65.851 116.335 65.8258 116.335 65.7754V65.4502C116.335 65.3998 116.36 65.3746 116.41 65.3746H119.911ZM122.719 70.7283C122.366 70.7283 122.054 70.6578 121.782 70.5166C121.509 70.3755 121.298 70.1789 121.146 69.9268C120.995 69.6697 120.92 69.3723 120.92 69.0345V65.4502C120.92 65.3998 120.945 65.3746 120.995 65.3746H121.381C121.431 65.3746 121.456 65.3998 121.456 65.4502V69.0496C121.456 69.4076 121.572 69.6999 121.804 69.9268C122.036 70.1486 122.341 70.2595 122.719 70.2595C123.097 70.2595 123.402 70.1486 123.634 69.9268C123.866 69.6999 123.982 69.4076 123.982 69.0496V65.4502C123.982 65.3998 124.007 65.3746 124.058 65.3746H124.443C124.494 65.3746 124.519 65.3998 124.519 65.4502V69.0345C124.519 69.3723 124.443 69.6697 124.292 69.9268C124.146 70.1789 123.937 70.3755 123.664 70.5166C123.392 70.6578 123.077 70.7283 122.719 70.7283ZM129.263 65.7678C129.263 65.8182 129.238 65.8434 129.188 65.8434H126.405C126.385 65.8434 126.375 65.8535 126.375 65.8737V67.7414C126.375 67.7616 126.385 67.7717 126.405 67.7717H128.356C128.406 67.7717 128.432 67.7969 128.432 67.8473V68.1649C128.432 68.2153 128.406 68.2405 128.356 68.2405H126.405C126.385 68.2405 126.375 68.2506 126.375 68.2708V70.1688C126.375 70.1889 126.385 70.199 126.405 70.199H129.188C129.238 70.199 129.263 70.2242 129.263 70.2746V70.5922C129.263 70.6426 129.238 70.6678 129.188 70.6678H125.914C125.863 70.6678 125.838 70.6426 125.838 70.5922V65.4502C125.838 65.3998 125.863 65.3746 125.914 65.3746H129.188C129.238 65.3746 129.263 65.3998 129.263 65.4502V65.7678Z" fill="#3C3C43" fill-opacity="0.3"/>
<path d="M150.481 70.6678C150.441 70.6678 150.413 70.6477 150.398 70.6074L148.946 65.4578L148.939 65.4351C148.939 65.3948 148.964 65.3746 149.014 65.3746H149.415C149.461 65.3746 149.488 65.3948 149.498 65.4351L150.648 69.579C150.653 69.589 150.658 69.5941 150.663 69.5941C150.673 69.5941 150.681 69.589 150.686 69.579L151.752 65.4427C151.762 65.3973 151.79 65.3746 151.835 65.3746H152.243C152.289 65.3746 152.316 65.3973 152.327 65.4427L153.438 69.579C153.443 69.589 153.448 69.5941 153.453 69.5941C153.463 69.5941 153.471 69.589 153.476 69.579L154.625 65.4351C154.635 65.3948 154.663 65.3746 154.708 65.3746H155.094C155.119 65.3746 155.137 65.3822 155.147 65.3973C155.162 65.4124 155.167 65.4326 155.162 65.4578L153.733 70.6074C153.723 70.6477 153.695 70.6678 153.65 70.6678H153.249C153.204 70.6678 153.176 70.6452 153.166 70.5998L152.062 66.3652C152.057 66.3551 152.049 66.3501 152.039 66.3501C152.034 66.3501 152.029 66.3551 152.024 66.3652L150.943 70.5998C150.938 70.6452 150.91 70.6678 150.86 70.6678H150.481ZM159.361 65.7678C159.361 65.8182 159.336 65.8434 159.285 65.8434H156.503C156.482 65.8434 156.472 65.8535 156.472 65.8737V67.7414C156.472 67.7616 156.482 67.7717 156.503 67.7717H158.453C158.504 67.7717 158.529 67.7969 158.529 67.8473V68.1649C158.529 68.2153 158.504 68.2405 158.453 68.2405H156.503C156.482 68.2405 156.472 68.2506 156.472 68.2708V70.1688C156.472 70.1889 156.482 70.199 156.503 70.199H159.285C159.336 70.199 159.361 70.2242 159.361 70.2746V70.5922C159.361 70.6426 159.336 70.6678 159.285 70.6678H156.011C155.961 70.6678 155.935 70.6426 155.935 70.5922V65.4502C155.935 65.3998 155.961 65.3746 156.011 65.3746H159.285C159.336 65.3746 159.361 65.3998 159.361 65.4502V65.7678ZM160.544 70.6678C160.494 70.6678 160.468 70.6426 160.468 70.5922V65.4502C160.468 65.3998 160.494 65.3746 160.544 65.3746H162.329C162.828 65.3746 163.223 65.5057 163.516 65.7678C163.813 66.03 163.962 66.3854 163.962 66.834V69.2084C163.962 69.6571 163.813 70.0125 163.516 70.2746C163.223 70.5368 162.828 70.6678 162.329 70.6678H160.544ZM161.005 70.1688C161.005 70.1889 161.015 70.199 161.036 70.199H162.351C162.679 70.199 162.939 70.1032 163.13 69.9117C163.327 69.7201 163.425 69.463 163.425 69.1404V66.9096C163.425 66.582 163.329 66.3223 163.138 66.1308C162.946 65.9392 162.684 65.8434 162.351 65.8434H161.036C161.015 65.8434 161.005 65.8535 161.005 65.8737V70.1688Z" fill="#3C3C43" fill-opacity="0.3"/>
<path d="M188.006 65.3746C188.057 65.3746 188.082 65.3998 188.082 65.4502V65.7754C188.082 65.8258 188.057 65.851 188.006 65.851H186.524C186.504 65.851 186.494 65.8611 186.494 65.8812V70.5922C186.494 70.6426 186.469 70.6678 186.418 70.6678H186.033C185.982 70.6678 185.957 70.6426 185.957 70.5922V65.8812C185.957 65.8611 185.947 65.851 185.927 65.851H184.505C184.455 65.851 184.429 65.8258 184.429 65.7754V65.4502C184.429 65.3998 184.455 65.3746 184.505 65.3746H188.006ZM192.085 65.4502C192.085 65.3998 192.11 65.3746 192.16 65.3746H192.546C192.596 65.3746 192.621 65.3998 192.621 65.4502V70.5922C192.621 70.6426 192.596 70.6678 192.546 70.6678H192.16C192.11 70.6678 192.085 70.6426 192.085 70.5922V68.2708C192.085 68.2506 192.074 68.2405 192.054 68.2405H189.642C189.622 68.2405 189.612 68.2506 189.612 68.2708V70.5922C189.612 70.6426 189.587 70.6678 189.536 70.6678H189.151C189.1 70.6678 189.075 70.6426 189.075 70.5922V65.4502C189.075 65.3998 189.1 65.3746 189.151 65.3746H189.536C189.587 65.3746 189.612 65.3998 189.612 65.4502V67.7414C189.612 67.7616 189.622 67.7717 189.642 67.7717H192.054C192.074 67.7717 192.085 67.7616 192.085 67.7414V65.4502ZM195.716 70.7283C195.364 70.7283 195.051 70.6578 194.779 70.5166C194.507 70.3755 194.295 70.1789 194.144 69.9268C193.992 69.6697 193.917 69.3723 193.917 69.0345V65.4502C193.917 65.3998 193.942 65.3746 193.992 65.3746H194.378C194.428 65.3746 194.454 65.3998 194.454 65.4502V69.0496C194.454 69.4076 194.57 69.6999 194.801 69.9268C195.033 70.1486 195.338 70.2595 195.716 70.2595C196.095 70.2595 196.399 70.1486 196.631 69.9268C196.863 69.6999 196.979 69.4076 196.979 69.0496V65.4502C196.979 65.3998 197.004 65.3746 197.055 65.3746H197.441C197.491 65.3746 197.516 65.3998 197.516 65.4502V69.0345C197.516 69.3723 197.441 69.6697 197.289 69.9268C197.143 70.1789 196.934 70.3755 196.662 70.5166C196.389 70.6578 196.074 70.7283 195.716 70.7283Z" fill="#3C3C43" fill-opacity="0.3"/>
<path d="M222.996 65.7678C222.996 65.8182 222.971 65.8434 222.921 65.8434H220.145C220.125 65.8434 220.115 65.8535 220.115 65.8737V67.7414C220.115 67.7616 220.125 67.7717 220.145 67.7717H222.089C222.139 67.7717 222.164 67.7969 222.164 67.8473V68.1649C222.164 68.2153 222.139 68.2405 222.089 68.2405H220.145C220.125 68.2405 220.115 68.2506 220.115 68.2708V70.5922C220.115 70.6426 220.09 70.6678 220.04 70.6678H219.654C219.603 70.6678 219.578 70.6426 219.578 70.5922V65.4502C219.578 65.3998 219.603 65.3746 219.654 65.3746H222.921C222.971 65.3746 222.996 65.3998 222.996 65.4502V65.7678ZM226.916 70.6678C226.871 70.6678 226.84 70.6502 226.825 70.6149L225.714 68.2708C225.709 68.2556 225.698 68.2481 225.683 68.2481H224.398C224.378 68.2481 224.368 68.2582 224.368 68.2783V70.5922C224.368 70.6426 224.342 70.6678 224.292 70.6678H223.906C223.856 70.6678 223.831 70.6426 223.831 70.5922V65.4502C223.831 65.3998 223.856 65.3746 223.906 65.3746H225.865C226.298 65.3746 226.649 65.5107 226.916 65.7829C227.183 66.0501 227.317 66.4005 227.317 66.834C227.317 67.1869 227.221 67.4869 227.029 67.7339C226.838 67.9809 226.578 68.1397 226.25 68.2103C226.23 68.2204 226.225 68.233 226.235 68.2481L227.37 70.5771C227.375 70.5872 227.377 70.5998 227.377 70.6149C227.377 70.6502 227.357 70.6678 227.317 70.6678H226.916ZM224.398 65.8434C224.378 65.8434 224.368 65.8535 224.368 65.8737V67.7868C224.368 67.807 224.378 67.8171 224.398 67.8171H225.804C226.097 67.8171 226.334 67.7263 226.515 67.5448C226.697 67.3634 226.787 67.1264 226.787 66.834C226.787 66.5416 226.697 66.3047 226.515 66.1232C226.334 65.9367 226.097 65.8434 225.804 65.8434H224.398ZM228.491 70.6678C228.441 70.6678 228.415 70.6426 228.415 70.5922V65.4502C228.415 65.3998 228.441 65.3746 228.491 65.3746H228.877C228.927 65.3746 228.952 65.3998 228.952 65.4502V70.5922C228.952 70.6426 228.927 70.6678 228.877 70.6678H228.491Z" fill="#3C3C43" fill-opacity="0.3"/>
<path d="M253.867 70.7283C253.297 70.7283 252.846 70.5998 252.513 70.3427C252.186 70.0856 252.022 69.7428 252.022 69.3143V69.0799C252.022 69.0295 252.047 69.0043 252.098 69.0043H252.468C252.519 69.0043 252.544 69.0295 252.544 69.0799V69.284C252.544 69.5764 252.665 69.8134 252.907 69.9948C253.149 70.1713 253.484 70.2595 253.912 70.2595C254.301 70.2595 254.595 70.1789 254.797 70.0175C254.999 69.8512 255.1 69.6319 255.1 69.3597C255.1 69.1832 255.052 69.032 254.956 68.906C254.865 68.7799 254.722 68.6615 254.525 68.5506C254.333 68.4396 254.061 68.3111 253.708 68.1649C253.33 68.0137 253.035 67.8826 252.824 67.7717C252.617 67.6557 252.448 67.5095 252.317 67.3331C252.191 67.1516 252.128 66.9248 252.128 66.6525C252.128 66.2291 252.274 65.9014 252.566 65.6695C252.864 65.4326 253.27 65.3141 253.784 65.3141C254.343 65.3141 254.785 65.4452 255.107 65.7073C255.43 65.9695 255.591 66.3173 255.591 66.7508V66.9172C255.591 66.9676 255.566 66.9928 255.516 66.9928H255.137C255.087 66.9928 255.062 66.9676 255.062 66.9172V66.7811C255.062 66.4887 254.946 66.2493 254.714 66.0627C254.487 65.8762 254.17 65.7829 253.761 65.7829C253.403 65.7829 253.129 65.856 252.937 66.0022C252.745 66.1484 252.65 66.3602 252.65 66.6374C252.65 66.8189 252.695 66.9701 252.786 67.0911C252.881 67.2071 253.015 67.3104 253.186 67.4012C253.363 67.4869 253.633 67.6003 253.996 67.7414C254.364 67.8927 254.659 68.0338 254.88 68.1649C255.107 68.296 255.289 68.4573 255.425 68.6489C255.566 68.8354 255.636 69.0648 255.636 69.337C255.636 69.7604 255.48 70.0982 255.168 70.3503C254.855 70.6023 254.422 70.7283 253.867 70.7283ZM259.848 70.6678C259.803 70.6678 259.773 70.6477 259.758 70.6074L259.455 69.6546C259.45 69.6394 259.44 69.6319 259.425 69.6319H257.164C257.149 69.6319 257.139 69.6394 257.134 69.6546L256.831 70.6074C256.816 70.6477 256.786 70.6678 256.74 70.6678H256.332C256.277 70.6678 256.256 70.6401 256.272 70.5847L257.943 65.4351C257.958 65.3948 257.988 65.3746 258.033 65.3746H258.548C258.593 65.3746 258.623 65.3948 258.638 65.4351L260.317 70.5847L260.325 70.6149C260.325 70.6502 260.302 70.6678 260.257 70.6678H259.848ZM257.285 69.1555C257.28 69.1656 257.28 69.1757 257.285 69.1857C257.295 69.1908 257.305 69.1933 257.315 69.1933H259.266C259.276 69.1933 259.284 69.1908 259.289 69.1857C259.299 69.1757 259.301 69.1656 259.296 69.1555L258.313 66.0703C258.308 66.0602 258.301 66.0552 258.291 66.0552C258.28 66.0552 258.273 66.0602 258.268 66.0703L257.285 69.1555ZM263.954 65.3746C264.005 65.3746 264.03 65.3998 264.03 65.4502V65.7754C264.03 65.8258 264.005 65.851 263.954 65.851H262.472C262.452 65.851 262.442 65.8611 262.442 65.8812V70.5922C262.442 70.6426 262.417 70.6678 262.366 70.6678H261.981C261.93 70.6678 261.905 70.6426 261.905 70.5922V65.8812C261.905 65.8611 261.895 65.851 261.875 65.851H260.453C260.403 65.851 260.378 65.8258 260.378 65.7754V65.4502C260.378 65.3998 260.403 65.3746 260.453 65.3746H263.954Z" fill="#3C3C43" fill-opacity="0.3"/>
<path d="M122.39 89.8998C122.437 89.8765 122.487 89.8649 122.542 89.8649H123.17C123.247 89.8649 123.286 89.9037 123.286 89.9812V97.892C123.286 97.9696 123.247 98.0084 123.17 98.0084H122.576C122.499 98.0084 122.46 97.9696 122.46 97.892V90.8072C122.46 90.7917 122.452 90.7801 122.437 90.7723C122.429 90.7646 122.417 90.7646 122.402 90.7723L121.169 91.2726L121.122 91.2842C121.076 91.2842 121.045 91.2532 121.029 91.1911L120.971 90.7491V90.7258C120.971 90.687 120.998 90.6482 121.052 90.6095L122.39 89.8998Z" fill="#254B45"/>
<path d="M155.161 97.2296C155.138 97.2684 155.145 97.2878 155.184 97.2878H158.837C158.915 97.2878 158.953 97.3266 158.953 97.4042V97.8928C158.953 97.9703 158.915 98.0091 158.837 98.0091H154.195C154.118 98.0091 154.079 97.9703 154.079 97.8928V97.4042C154.079 97.3499 154.098 97.3033 154.137 97.2646C154.401 96.9543 154.994 96.2253 155.917 95.0775L156.778 94.0072C157.507 93.0842 157.872 92.3668 157.872 91.855C157.872 91.4439 157.732 91.1143 157.453 90.8661C157.174 90.6179 156.809 90.4939 156.359 90.4939C155.917 90.4939 155.56 90.6218 155.289 90.8778C155.017 91.1259 154.886 91.4556 154.893 91.8666V92.2272C154.893 92.3048 154.855 92.3436 154.777 92.3436H154.172C154.095 92.3436 154.056 92.3048 154.056 92.2272V91.7619C154.071 91.1647 154.292 90.6839 154.719 90.3194C155.153 89.9548 155.7 89.7726 156.359 89.7726C156.825 89.7726 157.236 89.8618 157.592 90.0401C157.949 90.2185 158.224 90.4667 158.418 90.7847C158.612 91.0949 158.709 91.4478 158.709 91.8433C158.709 92.5026 158.345 93.2975 157.616 94.2282C157.236 94.7168 156.503 95.6165 155.417 96.9272L155.161 97.2296Z" fill="#254B45"/>
<path d="M192.702 94.1577C192.857 94.5377 192.934 94.9914 192.934 95.5188C192.934 95.9454 192.876 96.3215 192.76 96.6472C192.605 97.1126 192.341 97.4732 191.969 97.7292C191.604 97.9773 191.151 98.1014 190.608 98.1014C190.065 98.1014 189.599 97.9618 189.212 97.6826C188.824 97.3957 188.556 97.0118 188.409 96.5309C188.339 96.3137 188.296 96.019 188.281 95.6468C188.281 95.5692 188.32 95.5304 188.397 95.5304H188.991C189.068 95.5304 189.107 95.5692 189.107 95.6468C189.122 95.8717 189.15 96.0811 189.188 96.275C189.274 96.6162 189.437 96.8877 189.677 97.0893C189.925 97.2832 190.231 97.3802 190.596 97.3802C191.294 97.3802 191.748 97.0699 191.957 96.4495C192.05 96.1935 192.097 95.8756 192.097 95.4955C192.097 95.0302 192.035 94.6502 191.911 94.3554C191.662 93.797 191.224 93.5178 190.596 93.5178C190.48 93.5178 190.336 93.5605 190.166 93.6458C190.135 93.6613 190.111 93.6691 190.096 93.6691C190.065 93.6691 190.038 93.6497 190.014 93.6109L189.712 93.2037C189.673 93.1417 189.677 93.0874 189.723 93.0409L191.771 90.6444C191.794 90.6056 191.787 90.5862 191.748 90.5862H188.467C188.39 90.5862 188.351 90.5474 188.351 90.4699V89.9812C188.351 89.9037 188.39 89.8649 188.467 89.8649H192.771C192.849 89.8649 192.888 89.9037 192.888 89.9812V90.5513C192.888 90.5901 192.868 90.6366 192.83 90.6909L190.968 92.9245C190.953 92.94 190.949 92.9555 190.957 92.9711C190.964 92.9788 190.98 92.9827 191.003 92.9827C191.833 93.037 192.399 93.4286 192.702 94.1577Z" fill="#254B45"/>
<path d="M227.255 94.7814C227.332 94.7814 227.371 94.8202 227.371 94.8978V95.4096C227.371 95.4872 227.332 95.526 227.255 95.526H226.755C226.724 95.526 226.708 95.5415 226.708 95.5725V97.6549C226.708 97.7325 226.669 97.7712 226.592 97.7712H225.999C225.921 97.7712 225.882 97.7325 225.882 97.6549V95.5725C225.882 95.5415 225.867 95.526 225.836 95.526H222.357C222.28 95.526 222.241 95.4872 222.241 95.4096V94.9792C222.241 94.9404 222.253 94.8939 222.276 94.8396L224.661 89.7092C224.684 89.6549 224.727 89.6278 224.789 89.6278H225.405C225.444 89.6278 225.471 89.6433 225.487 89.6743C225.51 89.6976 225.514 89.7286 225.498 89.7674L223.183 94.7233C223.175 94.7388 223.175 94.7543 223.183 94.7698C223.191 94.7776 223.203 94.7814 223.218 94.7814H225.836C225.867 94.7814 225.882 94.7659 225.882 94.7349V92.8619C225.882 92.7843 225.921 92.7456 225.999 92.7456H226.592C226.669 92.7456 226.708 92.7843 226.708 92.8619V94.7349C226.708 94.7659 226.724 94.7814 226.755 94.7814H227.255Z" fill="#254B45"/>
<path d="M261.36 94.4485C261.43 94.7898 261.465 95.1388 261.465 95.4955C261.465 95.8756 261.43 96.2013 261.36 96.4727C261.228 96.9691 260.965 97.3646 260.569 97.6594C260.174 97.9463 259.697 98.0898 259.138 98.0898C258.587 98.0898 258.118 97.9502 257.73 97.671C257.343 97.3918 257.079 97.0195 256.939 96.5542C256.885 96.3835 256.85 96.2129 256.835 96.0423V96.019C256.835 95.957 256.87 95.926 256.939 95.926H257.556C257.634 95.926 257.676 95.9647 257.684 96.0423C257.684 96.0888 257.699 96.1664 257.73 96.275C257.808 96.6085 257.967 96.876 258.207 97.0777C258.456 97.2716 258.762 97.3685 259.126 97.3685C259.499 97.3685 259.809 97.2638 260.057 97.0544C260.313 96.845 260.48 96.5581 260.557 96.1935C260.604 96.0152 260.627 95.7825 260.627 95.4955C260.627 95.2318 260.608 94.9798 260.569 94.7393C260.515 94.3826 260.36 94.1111 260.104 93.925C259.848 93.7389 259.53 93.6458 259.15 93.6458C258.809 93.6458 258.502 93.7234 258.231 93.8785C257.959 94.0336 257.785 94.2391 257.707 94.495C257.684 94.5648 257.641 94.5997 257.579 94.5997H256.951C256.873 94.5997 256.835 94.561 256.835 94.4834V89.9812C256.835 89.9037 256.873 89.8649 256.951 89.8649H261.023C261.1 89.8649 261.139 89.9037 261.139 89.9812V90.4699C261.139 90.5474 261.1 90.5862 261.023 90.5862H257.707C257.676 90.5862 257.661 90.6017 257.661 90.6327L257.649 93.448C257.649 93.4635 257.653 93.4752 257.661 93.4829C257.676 93.4907 257.692 93.4868 257.707 93.4713C257.901 93.2929 258.13 93.1572 258.394 93.0641C258.657 92.9633 258.936 92.9129 259.231 92.9129C259.782 92.9129 260.247 93.0486 260.627 93.3201C261.007 93.5838 261.252 93.9599 261.36 94.4485Z" fill="#254B45"/>
<path d="M56.1402 122.102C56.303 122.451 56.3845 122.893 56.3845 123.429C56.3845 123.909 56.3224 124.297 56.1983 124.592C56.0355 125.042 55.7757 125.391 55.4189 125.639C55.0621 125.887 54.6162 126.011 54.081 126.011C53.5226 126.011 53.0534 125.879 52.6734 125.616C52.2934 125.352 52.0258 124.98 51.8707 124.499C51.7776 124.189 51.7311 123.824 51.7311 123.405V119.776C51.7311 119.14 51.9405 118.636 52.3593 118.263C52.7781 117.883 53.3249 117.693 53.9996 117.693C54.6588 117.693 55.1901 117.876 55.5934 118.24C55.9967 118.605 56.1983 119.085 56.1983 119.683V119.845C56.1983 119.923 56.1596 119.962 56.082 119.962H55.4887C55.4111 119.962 55.3724 119.923 55.3724 119.845V119.752C55.3724 119.357 55.2444 119.035 54.9885 118.787C54.7325 118.539 54.4029 118.415 53.9996 118.415C53.5808 118.415 53.2357 118.546 52.9642 118.81C52.6928 119.066 52.5571 119.407 52.5571 119.834V121.544C52.5571 121.559 52.5648 121.571 52.5803 121.579C52.5958 121.579 52.6075 121.571 52.6152 121.556C52.9565 121.09 53.4722 120.858 54.1625 120.858C54.6511 120.858 55.0583 120.966 55.384 121.183C55.7175 121.401 55.9696 121.707 56.1402 122.102ZM55.4189 124.313C55.512 124.072 55.5585 123.778 55.5585 123.429C55.5585 123.025 55.5042 122.715 55.3956 122.498C55.3026 122.211 55.1397 121.986 54.907 121.823C54.6744 121.66 54.3874 121.579 54.0461 121.579C53.7049 121.579 53.4179 121.664 53.1853 121.835C52.9526 121.998 52.7897 122.226 52.6967 122.521C52.6036 122.762 52.5571 123.076 52.5571 123.464C52.5571 123.805 52.5958 124.088 52.6734 124.313C52.7665 124.607 52.9293 124.844 53.162 125.022C53.4024 125.201 53.701 125.29 54.0578 125.29C54.3913 125.29 54.6782 125.209 54.9187 125.046C55.1591 124.875 55.3258 124.631 55.4189 124.313Z" fill="#254B45"/>
<rect x="78.8423" y="111.692" width="18.6136" height="18.6136" rx="9.3068" fill="#254B45"/>
<path d="M87.1565 125.93C87.1178 125.93 87.0867 125.918 87.0635 125.895C87.048 125.864 87.048 125.829 87.0635 125.79L89.7508 118.566C89.7586 118.55 89.7586 118.539 89.7508 118.531C89.7431 118.515 89.7314 118.508 89.7159 118.508H86.5749C86.5438 118.508 86.5283 118.523 86.5283 118.554V119.089C86.5283 119.167 86.4896 119.206 86.412 119.206H85.935C85.8575 119.206 85.8187 119.167 85.8187 119.089L85.8303 117.903C85.8303 117.825 85.8691 117.786 85.9467 117.786H90.5303C90.6078 117.786 90.6466 117.825 90.6466 117.903V118.438C90.6466 118.469 90.6388 118.515 90.6233 118.577L87.9476 125.837C87.9244 125.899 87.8778 125.93 87.808 125.93H87.1565Z" fill="white"/>
<path d="M124.427 122.51C124.574 122.828 124.648 123.208 124.648 123.65C124.648 124.185 124.535 124.638 124.311 125.011C124.124 125.329 123.861 125.577 123.519 125.755C123.178 125.934 122.783 126.023 122.333 126.023C121.868 126.023 121.46 125.934 121.111 125.755C120.762 125.569 120.495 125.302 120.309 124.953C120.091 124.565 119.983 124.127 119.983 123.638C119.983 123.227 120.064 122.839 120.227 122.475C120.406 122.087 120.689 121.796 121.076 121.602C121.115 121.587 121.115 121.567 121.076 121.544C120.821 121.397 120.611 121.199 120.448 120.951C120.216 120.617 120.099 120.237 120.099 119.811C120.099 119.376 120.216 118.981 120.448 118.624C120.634 118.322 120.89 118.089 121.216 117.926C121.55 117.755 121.922 117.67 122.333 117.67C122.759 117.67 123.132 117.755 123.45 117.926C123.768 118.089 124.02 118.322 124.206 118.624C124.431 118.988 124.543 119.384 124.543 119.811C124.543 120.237 124.427 120.625 124.194 120.974C124.055 121.183 123.849 121.373 123.578 121.544C123.539 121.567 123.539 121.587 123.578 121.602C123.973 121.796 124.256 122.099 124.427 122.51ZM121.1 119.124C120.976 119.357 120.914 119.586 120.914 119.811C120.914 120.136 120.995 120.419 121.158 120.66C121.282 120.854 121.441 121.001 121.635 121.102C121.837 121.203 122.065 121.253 122.321 121.253C122.577 121.253 122.806 121.203 123.008 121.102C123.209 120.993 123.372 120.842 123.496 120.648C123.644 120.439 123.717 120.156 123.717 119.799C123.717 119.543 123.659 119.31 123.543 119.101C123.426 118.884 123.264 118.713 123.054 118.589C122.845 118.457 122.597 118.391 122.31 118.391C122.038 118.391 121.798 118.457 121.588 118.589C121.379 118.721 121.216 118.899 121.1 119.124ZM123.531 124.697C123.725 124.402 123.822 124.034 123.822 123.591C123.822 123.227 123.76 122.913 123.636 122.649C123.403 122.137 122.965 121.881 122.321 121.881C121.709 121.881 121.282 122.122 121.042 122.603C120.902 122.851 120.832 123.184 120.832 123.603C120.832 124.037 120.917 124.39 121.088 124.662C121.352 125.088 121.767 125.302 122.333 125.302C122.884 125.302 123.283 125.1 123.531 124.697Z" fill="#254B45"/>
<path d="M158.643 119.217C158.736 119.527 158.783 119.891 158.783 120.31V123.94C158.783 124.576 158.573 125.084 158.155 125.464C157.736 125.836 157.189 126.022 156.514 126.022C155.863 126.022 155.331 125.84 154.92 125.475C154.517 125.103 154.315 124.622 154.315 124.033V123.87C154.315 123.792 154.354 123.754 154.432 123.754H155.025C155.103 123.754 155.141 123.792 155.141 123.87V123.963C155.141 124.359 155.269 124.68 155.525 124.929C155.781 125.177 156.111 125.301 156.514 125.301C156.933 125.301 157.278 125.173 157.55 124.917C157.821 124.653 157.957 124.308 157.957 123.882V122.183C157.957 122.168 157.949 122.16 157.933 122.16C157.918 122.152 157.906 122.156 157.899 122.171C157.557 122.629 157.045 122.858 156.363 122.858C155.874 122.858 155.463 122.749 155.13 122.532C154.804 122.315 154.556 122.009 154.385 121.613C154.222 121.287 154.141 120.845 154.141 120.287C154.141 119.814 154.199 119.426 154.315 119.123C154.478 118.674 154.738 118.325 155.095 118.076C155.459 117.828 155.905 117.704 156.433 117.704C156.991 117.704 157.46 117.84 157.84 118.111C158.228 118.375 158.496 118.743 158.643 119.217ZM156.468 122.137C156.809 122.137 157.096 122.055 157.329 121.892C157.569 121.722 157.736 121.489 157.829 121.194C157.914 120.969 157.957 120.655 157.957 120.252C157.957 119.918 157.922 119.635 157.852 119.403C157.759 119.108 157.592 118.871 157.352 118.693C157.111 118.515 156.817 118.425 156.468 118.425C156.134 118.425 155.847 118.511 155.607 118.681C155.366 118.844 155.196 119.085 155.095 119.403C155.01 119.62 154.967 119.915 154.967 120.287C154.967 120.682 155.017 120.993 155.118 121.218C155.211 121.497 155.374 121.722 155.607 121.892C155.839 122.055 156.126 122.137 156.468 122.137Z" fill="#254B45"/>
<path d="M187.354 117.821C187.4 117.798 187.451 117.786 187.505 117.786H188.133C188.211 117.786 188.25 117.825 188.25 117.903V125.813C188.25 125.891 188.211 125.93 188.133 125.93H187.54C187.462 125.93 187.424 125.891 187.424 125.813V118.729C187.424 118.713 187.416 118.702 187.4 118.694C187.393 118.686 187.381 118.686 187.365 118.694L186.132 119.194L186.086 119.206C186.039 119.206 186.008 119.175 185.993 119.113L185.935 118.671V118.647C185.935 118.608 185.962 118.57 186.016 118.531L187.354 117.821ZM192.817 126.046C192.072 126.046 191.479 125.833 191.037 125.406C190.595 124.98 190.374 124.41 190.374 123.696V120.02C190.374 119.306 190.595 118.74 191.037 118.322C191.479 117.895 192.072 117.682 192.817 117.682C193.569 117.682 194.17 117.895 194.62 118.322C195.07 118.748 195.295 119.314 195.295 120.02V123.696C195.295 124.41 195.07 124.98 194.62 125.406C194.17 125.833 193.569 126.046 192.817 126.046ZM192.817 125.325C193.313 125.325 193.713 125.181 194.015 124.894C194.318 124.607 194.469 124.224 194.469 123.743V119.985C194.469 119.512 194.318 119.132 194.015 118.845C193.721 118.558 193.321 118.415 192.817 118.415C192.328 118.415 191.937 118.558 191.642 118.845C191.347 119.132 191.2 119.512 191.2 119.985V123.743C191.2 124.224 191.347 124.607 191.642 124.894C191.937 125.181 192.328 125.325 192.817 125.325Z" fill="#254B45"/>
<path d="M222.774 117.584C222.82 117.561 222.871 117.549 222.925 117.549H223.553C223.631 117.549 223.67 117.588 223.67 117.665V125.576C223.67 125.654 223.631 125.692 223.553 125.692H222.96C222.882 125.692 222.844 125.654 222.844 125.576V118.491C222.844 118.476 222.836 118.464 222.82 118.456C222.813 118.449 222.801 118.449 222.785 118.456L221.552 118.957L221.506 118.968C221.459 118.968 221.428 118.937 221.413 118.875L221.355 118.433V118.41C221.355 118.371 221.382 118.332 221.436 118.293L222.774 117.584ZM227.096 117.584C227.143 117.561 227.193 117.549 227.247 117.549H227.876C227.953 117.549 227.992 117.588 227.992 117.665V125.576C227.992 125.654 227.953 125.692 227.876 125.692H227.282C227.205 125.692 227.166 125.654 227.166 125.576V118.491C227.166 118.476 227.158 118.464 227.143 118.456C227.135 118.449 227.123 118.449 227.108 118.456L225.875 118.957L225.828 118.968C225.782 118.968 225.751 118.937 225.735 118.875L225.677 118.433V118.41C225.677 118.371 225.704 118.332 225.758 118.293L227.096 117.584Z" fill="#254B45"/>
<path d="M255.887 117.821C255.933 117.798 255.984 117.786 256.038 117.786H256.666C256.744 117.786 256.782 117.825 256.782 117.903V125.813C256.782 125.891 256.744 125.93 256.666 125.93H256.073C255.995 125.93 255.957 125.891 255.957 125.813V118.729C255.957 118.713 255.949 118.702 255.933 118.694C255.925 118.686 255.914 118.686 255.898 118.694L254.665 119.194L254.619 119.206C254.572 119.206 254.541 119.175 254.526 119.113L254.467 118.671V118.647C254.467 118.608 254.495 118.57 254.549 118.531L255.887 117.821ZM259.849 125.15C259.826 125.189 259.834 125.209 259.872 125.209H263.525C263.603 125.209 263.642 125.247 263.642 125.325V125.813C263.642 125.891 263.603 125.93 263.525 125.93H258.884C258.806 125.93 258.767 125.891 258.767 125.813V125.325C258.767 125.271 258.787 125.224 258.825 125.185C259.089 124.875 259.682 124.146 260.605 122.998L261.466 121.928C262.195 121.005 262.56 120.288 262.56 119.776C262.56 119.365 262.42 119.035 262.141 118.787C261.862 118.539 261.497 118.415 261.047 118.415C260.605 118.415 260.249 118.543 259.977 118.798C259.706 119.047 259.574 119.376 259.582 119.787V120.148C259.582 120.226 259.543 120.264 259.465 120.264H258.86C258.783 120.264 258.744 120.226 258.744 120.148V119.683C258.76 119.085 258.981 118.605 259.407 118.24C259.841 117.876 260.388 117.693 261.047 117.693C261.513 117.693 261.924 117.782 262.281 117.961C262.637 118.139 262.913 118.387 263.107 118.705C263.3 119.016 263.397 119.369 263.397 119.764C263.397 120.423 263.033 121.218 262.304 122.149C261.924 122.638 261.191 123.537 260.105 124.848L259.849 125.15Z" fill="#254B45"/>
<path d="M50.9248 145.74C50.9714 145.717 51.0218 145.705 51.0761 145.705H51.7043C51.7818 145.705 51.8206 145.744 51.8206 145.821V153.732C51.8206 153.81 51.7818 153.849 51.7043 153.849H51.111C51.0334 153.849 50.9946 153.81 50.9946 153.732V146.647C50.9946 146.632 50.9869 146.62 50.9714 146.613C50.9636 146.605 50.952 146.605 50.9365 146.613L49.7033 147.113L49.6568 147.124C49.6102 147.124 49.5792 147.093 49.5637 147.031L49.5055 146.589V146.566C49.5055 146.527 49.5327 146.488 49.587 146.45L50.9248 145.74ZM58.1214 149.998C58.2765 150.378 58.3541 150.832 58.3541 151.359C58.3541 151.786 58.2959 152.162 58.1796 152.487C58.0245 152.953 57.7608 153.313 57.3885 153.569C57.024 153.818 56.5703 153.942 56.0274 153.942C55.4845 153.942 55.0191 153.802 54.6314 153.523C54.2436 153.236 53.976 152.852 53.8287 152.371C53.7589 152.154 53.7162 151.859 53.7007 151.487C53.7007 151.409 53.7395 151.371 53.817 151.371H54.4103C54.4879 151.371 54.5267 151.409 54.5267 151.487C54.5422 151.712 54.5693 151.921 54.6081 152.115C54.6934 152.456 54.8563 152.728 55.0967 152.93C55.3449 153.123 55.6512 153.22 56.0158 153.22C56.7138 153.22 57.1675 152.91 57.3769 152.29C57.4699 152.034 57.5165 151.716 57.5165 151.336C57.5165 150.87 57.4544 150.49 57.3303 150.196C57.0822 149.637 56.644 149.358 56.0158 149.358C55.8994 149.358 55.7559 149.401 55.5853 149.486C55.5543 149.502 55.531 149.509 55.5155 149.509C55.4845 149.509 55.4573 149.49 55.4341 149.451L55.1316 149.044C55.0928 148.982 55.0967 148.928 55.1432 148.881L57.1907 146.485C57.214 146.446 57.2062 146.426 57.1675 146.426H53.8868C53.8093 146.426 53.7705 146.388 53.7705 146.31V145.821C53.7705 145.744 53.8093 145.705 53.8868 145.705H58.1912C58.2688 145.705 58.3075 145.744 58.3075 145.821V146.391C58.3075 146.43 58.2882 146.477 58.2494 146.531L56.388 148.765C56.3725 148.78 56.3686 148.796 56.3764 148.811C56.3841 148.819 56.3997 148.823 56.4229 148.823C57.2528 148.877 57.8189 149.269 58.1214 149.998Z" fill="#254B45"/>
<path d="M84.8954 145.741C84.942 145.717 84.9924 145.706 85.0467 145.706H85.6749C85.7524 145.706 85.7912 145.744 85.7912 145.822V153.733C85.7912 153.81 85.7524 153.849 85.6749 153.849H85.0816C85.004 153.849 84.9652 153.81 84.9652 153.733V146.648C84.9652 146.632 84.9575 146.621 84.942 146.613C84.9342 146.605 84.9226 146.605 84.9071 146.613L83.6739 147.113L83.6274 147.125C83.5808 147.125 83.5498 147.094 83.5343 147.032L83.4761 146.59V146.567C83.4761 146.528 83.5033 146.489 83.5576 146.45L84.8954 145.741ZM92.6737 150.859C92.7513 150.859 92.79 150.898 92.79 150.976V151.488C92.79 151.565 92.7513 151.604 92.6737 151.604H92.1735C92.1424 151.604 92.1269 151.619 92.1269 151.65V153.733C92.1269 153.81 92.0881 153.849 92.0106 153.849H91.4173C91.3397 153.849 91.3009 153.81 91.3009 153.733V151.65C91.3009 151.619 91.2854 151.604 91.2544 151.604H87.776C87.6984 151.604 87.6597 151.565 87.6597 151.488V151.057C87.6597 151.018 87.6713 150.972 87.6946 150.917L90.0794 145.787C90.1027 145.733 90.1454 145.706 90.2074 145.706H90.824C90.8628 145.706 90.8899 145.721 90.9054 145.752C90.9287 145.775 90.9326 145.806 90.917 145.845L88.602 150.801C88.5942 150.817 88.5942 150.832 88.602 150.848C88.6097 150.855 88.6214 150.859 88.6369 150.859H91.2544C91.2854 150.859 91.3009 150.844 91.3009 150.813V148.94C91.3009 148.862 91.3397 148.823 91.4173 148.823H92.0106C92.0881 148.823 92.1269 148.862 92.1269 148.94V150.813C92.1269 150.844 92.1424 150.859 92.1735 150.859H92.6737Z" fill="#254B45"/>
<path d="M119.292 145.74C119.338 145.717 119.389 145.705 119.443 145.705H120.071C120.149 145.705 120.188 145.744 120.188 145.821V153.732C120.188 153.81 120.149 153.849 120.071 153.849H119.478C119.4 153.849 119.362 153.81 119.362 153.732V146.647C119.362 146.632 119.354 146.62 119.338 146.613C119.331 146.605 119.319 146.605 119.304 146.613L118.07 147.113L118.024 147.124C117.977 147.124 117.946 147.093 117.931 147.031L117.873 146.589V146.566C117.873 146.527 117.9 146.488 117.954 146.45L119.292 145.74ZM126.779 150.289C126.849 150.63 126.884 150.979 126.884 151.336C126.884 151.716 126.849 152.042 126.779 152.313C126.647 152.809 126.384 153.205 125.988 153.5C125.593 153.787 125.116 153.93 124.557 153.93C124.007 153.93 123.537 153.79 123.15 153.511C122.762 153.232 122.498 152.86 122.359 152.394C122.304 152.224 122.269 152.053 122.254 151.883V151.859C122.254 151.797 122.289 151.766 122.359 151.766H122.975C123.053 151.766 123.095 151.805 123.103 151.883C123.103 151.929 123.119 152.007 123.15 152.115C123.227 152.449 123.386 152.716 123.627 152.918C123.875 153.112 124.181 153.209 124.546 153.209C124.918 153.209 125.228 153.104 125.476 152.895C125.732 152.685 125.899 152.398 125.977 152.034C126.023 151.855 126.046 151.623 126.046 151.336C126.046 151.072 126.027 150.82 125.988 150.58C125.934 150.223 125.779 149.951 125.523 149.765C125.267 149.579 124.949 149.486 124.569 149.486C124.228 149.486 123.921 149.564 123.65 149.719C123.378 149.874 123.204 150.079 123.126 150.335C123.103 150.405 123.06 150.44 122.998 150.44H122.37C122.293 150.44 122.254 150.401 122.254 150.324V145.821C122.254 145.744 122.293 145.705 122.37 145.705H126.442C126.52 145.705 126.558 145.744 126.558 145.821V146.31C126.558 146.388 126.52 146.426 126.442 146.426H123.126C123.095 146.426 123.08 146.442 123.08 146.473L123.068 149.288C123.068 149.304 123.072 149.315 123.08 149.323C123.095 149.331 123.111 149.327 123.126 149.312C123.32 149.133 123.549 148.997 123.813 148.904C124.076 148.804 124.356 148.753 124.65 148.753C125.201 148.753 125.666 148.889 126.046 149.16C126.426 149.424 126.671 149.8 126.779 150.289Z" fill="#254B45"/>
<path d="M153.468 145.74C153.515 145.717 153.565 145.705 153.619 145.705H154.247C154.325 145.705 154.364 145.744 154.364 145.821V153.732C154.364 153.81 154.325 153.849 154.247 153.849H153.654C153.577 153.849 153.538 153.81 153.538 153.732V146.647C153.538 146.632 153.53 146.62 153.515 146.613C153.507 146.605 153.495 146.605 153.48 146.613L152.247 147.113L152.2 147.124C152.153 147.124 152.122 147.093 152.107 147.031L152.049 146.589V146.566C152.049 146.527 152.076 146.488 152.13 146.45L153.468 145.74ZM160.827 150.021C160.99 150.37 161.072 150.812 161.072 151.347C161.072 151.828 161.01 152.216 160.886 152.511C160.723 152.961 160.463 153.31 160.106 153.558C159.749 153.806 159.304 153.93 158.768 153.93C158.21 153.93 157.741 153.798 157.361 153.534C156.981 153.271 156.713 152.899 156.558 152.418C156.465 152.107 156.418 151.743 156.418 151.324V147.694C156.418 147.058 156.628 146.554 157.047 146.182C157.465 145.802 158.012 145.612 158.687 145.612C159.346 145.612 159.877 145.794 160.281 146.159C160.684 146.523 160.886 147.004 160.886 147.601V147.764C160.886 147.842 160.847 147.881 160.769 147.881H160.176C160.098 147.881 160.06 147.842 160.06 147.764V147.671C160.06 147.276 159.932 146.954 159.676 146.706C159.42 146.457 159.09 146.333 158.687 146.333C158.268 146.333 157.923 146.465 157.652 146.729C157.38 146.985 157.244 147.326 157.244 147.753V149.463C157.244 149.478 157.252 149.49 157.268 149.498C157.283 149.498 157.295 149.49 157.303 149.474C157.644 149.009 158.16 148.776 158.85 148.776C159.338 148.776 159.746 148.885 160.071 149.102C160.405 149.319 160.657 149.626 160.827 150.021ZM160.106 152.232C160.199 151.991 160.246 151.696 160.246 151.347C160.246 150.944 160.192 150.634 160.083 150.417C159.99 150.13 159.827 149.905 159.594 149.742C159.362 149.579 159.075 149.498 158.733 149.498C158.392 149.498 158.105 149.583 157.873 149.754C157.64 149.916 157.477 150.145 157.384 150.44C157.291 150.68 157.244 150.994 157.244 151.382C157.244 151.724 157.283 152.007 157.361 152.232C157.454 152.526 157.617 152.763 157.849 152.941C158.09 153.12 158.388 153.209 158.745 153.209C159.079 153.209 159.366 153.127 159.606 152.964C159.846 152.794 160.013 152.549 160.106 152.232Z" fill="#254B45"/>
<path d="M187.893 145.74C187.94 145.717 187.99 145.705 188.045 145.705H188.673C188.75 145.705 188.789 145.744 188.789 145.821V153.732C188.789 153.81 188.75 153.849 188.673 153.849H188.08C188.002 153.849 187.963 153.81 187.963 153.732V146.647C187.963 146.632 187.955 146.62 187.94 146.613C187.932 146.605 187.921 146.605 187.905 146.613L186.672 147.113L186.625 147.124C186.579 147.124 186.548 147.093 186.532 147.031L186.474 146.589V146.566C186.474 146.527 186.501 146.488 186.556 146.45L187.893 145.74ZM191.844 153.849C191.806 153.849 191.774 153.837 191.751 153.814C191.736 153.783 191.736 153.748 191.751 153.709L194.439 146.485C194.446 146.469 194.446 146.457 194.439 146.45C194.431 146.434 194.419 146.426 194.404 146.426H191.263C191.232 146.426 191.216 146.442 191.216 146.473V147.008C191.216 147.086 191.177 147.124 191.1 147.124H190.623C190.545 147.124 190.506 147.086 190.506 147.008L190.518 145.821C190.518 145.744 190.557 145.705 190.634 145.705H195.218C195.296 145.705 195.334 145.744 195.334 145.821V146.357C195.334 146.388 195.327 146.434 195.311 146.496L192.635 153.756C192.612 153.818 192.566 153.849 192.496 153.849H191.844Z" fill="#254B45"/>
<path d="M221.791 145.503C221.838 145.479 221.888 145.468 221.942 145.468H222.571C222.648 145.468 222.687 145.507 222.687 145.584V153.495C222.687 153.572 222.648 153.611 222.571 153.611H221.977C221.9 153.611 221.861 153.572 221.861 153.495V146.41C221.861 146.395 221.853 146.383 221.838 146.375C221.83 146.367 221.818 146.367 221.803 146.375L220.57 146.875L220.523 146.887C220.477 146.887 220.446 146.856 220.43 146.794L220.372 146.352V146.329C220.372 146.29 220.399 146.251 220.453 146.212L221.791 145.503ZM229.116 150.191C229.263 150.509 229.337 150.889 229.337 151.331C229.337 151.866 229.224 152.32 228.999 152.692C228.813 153.01 228.55 153.258 228.208 153.437C227.867 153.615 227.472 153.704 227.022 153.704C226.556 153.704 226.149 153.615 225.8 153.437C225.451 153.251 225.184 152.983 224.997 152.634C224.78 152.246 224.672 151.808 224.672 151.319C224.672 150.908 224.753 150.521 224.916 150.156C225.094 149.768 225.378 149.477 225.765 149.284C225.804 149.268 225.804 149.249 225.765 149.225C225.509 149.078 225.3 148.88 225.137 148.632C224.904 148.299 224.788 147.919 224.788 147.492C224.788 147.058 224.904 146.662 225.137 146.305C225.323 146.003 225.579 145.77 225.905 145.607C226.238 145.437 226.611 145.351 227.022 145.351C227.448 145.351 227.821 145.437 228.139 145.607C228.457 145.77 228.709 146.003 228.895 146.305C229.12 146.67 229.232 147.065 229.232 147.492C229.232 147.919 229.116 148.306 228.883 148.655C228.743 148.865 228.538 149.055 228.267 149.225C228.228 149.249 228.228 149.268 228.267 149.284C228.662 149.477 228.945 149.78 229.116 150.191ZM225.789 146.806C225.664 147.038 225.602 147.267 225.602 147.492C225.602 147.818 225.684 148.101 225.847 148.341C225.971 148.535 226.13 148.683 226.324 148.783C226.525 148.884 226.754 148.935 227.01 148.935C227.266 148.935 227.495 148.884 227.696 148.783C227.898 148.675 228.061 148.524 228.185 148.33C228.332 148.12 228.406 147.837 228.406 147.48C228.406 147.224 228.348 146.992 228.232 146.782C228.115 146.565 227.952 146.395 227.743 146.271C227.534 146.139 227.285 146.073 226.998 146.073C226.727 146.073 226.487 146.139 226.277 146.271C226.068 146.402 225.905 146.581 225.789 146.806ZM228.22 152.378C228.414 152.083 228.511 151.715 228.511 151.273C228.511 150.908 228.449 150.594 228.325 150.331C228.092 149.819 227.654 149.563 227.01 149.563C226.397 149.563 225.971 149.803 225.73 150.284C225.591 150.532 225.521 150.866 225.521 151.285C225.521 151.719 225.606 152.072 225.777 152.343C226.041 152.77 226.456 152.983 227.022 152.983C227.572 152.983 227.972 152.781 228.22 152.378Z" fill="#254B45"/>
<path d="M255.972 145.741C256.018 145.717 256.069 145.706 256.123 145.706H256.751C256.829 145.706 256.868 145.744 256.868 145.822V153.733C256.868 153.81 256.829 153.849 256.751 153.849H256.158C256.08 153.849 256.042 153.81 256.042 153.733V146.648C256.042 146.632 256.034 146.621 256.018 146.613C256.011 146.605 255.999 146.605 255.983 146.613L254.75 147.113L254.704 147.125C254.657 147.125 254.626 147.094 254.611 147.032L254.553 146.59V146.567C254.553 146.528 254.58 146.489 254.634 146.45L255.972 145.741ZM263.331 147.137C263.424 147.447 263.471 147.811 263.471 148.23V151.86C263.471 152.496 263.262 153.004 262.843 153.384C262.424 153.756 261.877 153.942 261.202 153.942C260.551 153.942 260.02 153.76 259.609 153.395C259.205 153.023 259.004 152.542 259.004 151.953V151.79C259.004 151.712 259.042 151.674 259.12 151.674H259.713C259.791 151.674 259.83 151.712 259.83 151.79V151.883C259.83 152.279 259.958 152.6 260.214 152.849C260.469 153.097 260.799 153.221 261.202 153.221C261.621 153.221 261.966 153.093 262.238 152.837C262.509 152.573 262.645 152.228 262.645 151.802V150.103C262.645 150.088 262.637 150.08 262.622 150.08C262.606 150.072 262.595 150.076 262.587 150.092C262.246 150.549 261.734 150.778 261.051 150.778C260.563 150.778 260.151 150.669 259.818 150.452C259.492 150.235 259.244 149.929 259.073 149.533C258.911 149.207 258.829 148.765 258.829 148.207C258.829 147.734 258.887 147.346 259.004 147.044C259.167 146.594 259.426 146.245 259.783 145.997C260.148 145.748 260.594 145.624 261.121 145.624C261.679 145.624 262.149 145.76 262.529 146.031C262.916 146.295 263.184 146.663 263.331 147.137ZM261.156 150.057C261.497 150.057 261.784 149.975 262.017 149.812C262.257 149.642 262.424 149.409 262.517 149.114C262.602 148.889 262.645 148.575 262.645 148.172C262.645 147.838 262.61 147.555 262.54 147.323C262.447 147.028 262.28 146.791 262.04 146.613C261.8 146.435 261.505 146.346 261.156 146.346C260.822 146.346 260.535 146.431 260.295 146.601C260.055 146.764 259.884 147.005 259.783 147.323C259.698 147.54 259.655 147.835 259.655 148.207C259.655 148.602 259.706 148.913 259.806 149.138C259.899 149.417 260.062 149.642 260.295 149.812C260.528 149.975 260.815 150.057 261.156 150.057Z" fill="#254B45"/>
<path d="M50.9528 178.737C51.0303 178.737 51.0691 178.776 51.0691 178.853V179.354C51.0691 179.431 51.0303 179.47 50.9528 179.47H48.6726C48.6416 179.47 48.6261 179.485 48.6261 179.516V186.764C48.6261 186.842 48.5873 186.88 48.5097 186.88H47.9164C47.8389 186.88 47.8001 186.842 47.8001 186.764V179.516C47.8001 179.485 47.7846 179.47 47.7536 179.47H45.5665C45.4889 179.47 45.4501 179.431 45.4501 179.354V178.853C45.4501 178.776 45.4889 178.737 45.5665 178.737H50.9528ZM53.1243 179.924C52.9382 179.924 52.7831 179.862 52.659 179.738C52.5349 179.613 52.4729 179.458 52.4729 179.272C52.4729 179.078 52.5349 178.923 52.659 178.807C52.7831 178.683 52.9382 178.621 53.1243 178.621C53.3105 178.621 53.4656 178.683 53.5897 178.807C53.7138 178.923 53.7758 179.078 53.7758 179.272C53.7758 179.458 53.7138 179.613 53.5897 179.738C53.4656 179.862 53.3105 179.924 53.1243 179.924ZM52.7986 186.869C52.721 186.869 52.6823 186.83 52.6823 186.753V181.099C52.6823 181.021 52.721 180.982 52.7986 180.982H53.3919C53.4695 180.982 53.5082 181.021 53.5082 181.099V186.753C53.5082 186.83 53.4695 186.869 53.3919 186.869H52.7986ZM61.7085 180.913C62.2902 180.913 62.7478 181.087 63.0812 181.436C63.4225 181.785 63.5931 182.262 63.5931 182.867V186.764C63.5931 186.842 63.5543 186.88 63.4768 186.88H62.8951C62.8176 186.88 62.7788 186.842 62.7788 186.764V183.03C62.7788 182.603 62.6547 182.266 62.4065 182.018C62.1661 181.762 61.8481 181.634 61.4526 181.634C61.0415 181.634 60.708 181.758 60.4521 182.006C60.2039 182.254 60.0798 182.588 60.0798 183.007V186.764C60.0798 186.842 60.041 186.88 59.9635 186.88H59.3702C59.2926 186.88 59.2538 186.842 59.2538 186.764V183.03C59.2538 182.603 59.1336 182.266 58.8932 182.018C58.6528 181.762 58.3309 181.634 57.9276 181.634C57.5166 181.634 57.1869 181.758 56.9388 182.006C56.6983 182.254 56.5781 182.588 56.5781 183.007V186.764C56.5781 186.842 56.5393 186.88 56.4618 186.88H55.8685C55.7909 186.88 55.7521 186.842 55.7521 186.764V181.11C55.7521 181.033 55.7909 180.994 55.8685 180.994H56.4618C56.5393 180.994 56.5781 181.033 56.5781 181.11V181.576C56.5781 181.591 56.582 181.603 56.5898 181.611C56.6053 181.611 56.6208 181.603 56.6363 181.587C56.8069 181.362 57.0241 181.196 57.2878 181.087C57.5592 180.971 57.8578 180.913 58.1835 180.913C58.5868 180.913 58.932 180.994 59.2189 181.157C59.5059 181.32 59.723 181.556 59.8704 181.866C59.8859 181.905 59.9053 181.905 59.9286 181.866C60.0992 181.548 60.3396 181.312 60.6498 181.157C60.9601 180.994 61.313 180.913 61.7085 180.913ZM70.0301 182.948C70.0611 183.166 70.0766 183.437 70.0766 183.763V184.135C70.0766 184.213 70.0378 184.251 69.9603 184.251H66.2027C66.1716 184.251 66.1561 184.267 66.1561 184.298C66.1716 184.724 66.1949 185 66.2259 185.124C66.3112 185.473 66.4935 185.748 66.7727 185.95C67.0519 186.151 67.4087 186.252 67.843 186.252C68.1687 186.252 68.4557 186.179 68.7039 186.031C68.952 185.884 69.1459 185.674 69.2855 185.403C69.3321 185.333 69.3864 185.318 69.4484 185.357L69.9021 185.624C69.9642 185.663 69.9797 185.717 69.9486 185.787C69.7548 186.159 69.4639 186.454 69.0761 186.671C68.6883 186.88 68.2424 186.985 67.7383 186.985C67.1876 186.977 66.7262 186.846 66.3539 186.59C65.9816 186.334 65.7141 185.977 65.5512 185.519C65.4116 185.147 65.3418 184.612 65.3418 183.914C65.3418 183.588 65.3457 183.325 65.3534 183.123C65.3689 182.913 65.3999 182.727 65.4465 182.564C65.5783 182.06 65.842 181.657 66.2376 181.355C66.6409 181.052 67.1256 180.901 67.6917 180.901C68.3975 180.901 68.9404 181.079 69.3204 181.436C69.7005 181.793 69.937 182.297 70.0301 182.948ZM67.6917 181.622C67.3117 181.622 66.9937 181.723 66.7378 181.925C66.4896 182.119 66.3267 182.382 66.2492 182.716C66.2027 182.879 66.1716 183.142 66.1561 183.507C66.1561 183.538 66.1716 183.553 66.2027 183.553H69.2157C69.2468 183.553 69.2623 183.538 69.2623 183.507C69.2468 183.158 69.2235 182.91 69.1925 182.762C69.1072 182.413 68.9327 182.138 68.669 181.936C68.413 181.727 68.0873 181.622 67.6917 181.622Z" fill="black"/>
<rect x="156.969" y="171.41" width="50.024" height="20.9403" rx="3.49005" fill="#767680" fill-opacity="0.12"/>
<path d="M195.986 185.03C196.071 185.03 196.114 185.072 196.114 185.158V185.721C196.114 185.806 196.071 185.849 195.986 185.849H195.435C195.401 185.849 195.384 185.866 195.384 185.9V188.191C195.384 188.276 195.342 188.318 195.256 188.318H194.604C194.518 188.318 194.476 188.276 194.476 188.191V185.9C194.476 185.866 194.459 185.849 194.424 185.849H190.598C190.513 185.849 190.47 185.806 190.47 185.721V185.247C190.47 185.205 190.483 185.153 190.509 185.094L193.132 179.45C193.158 179.391 193.204 179.361 193.273 179.361H193.951C193.994 179.361 194.023 179.378 194.041 179.412C194.066 179.437 194.07 179.472 194.053 179.514L191.507 184.966C191.498 184.983 191.498 185 191.507 185.017C191.515 185.025 191.528 185.03 191.545 185.03H194.424C194.459 185.03 194.476 185.013 194.476 184.979V182.918C194.476 182.833 194.518 182.79 194.604 182.79H195.256C195.342 182.79 195.384 182.833 195.384 182.918V184.979C195.384 185.013 195.401 185.03 195.435 185.03H195.986ZM198.224 179.399C198.275 179.373 198.33 179.361 198.39 179.361H199.081C199.166 179.361 199.209 179.403 199.209 179.489V188.191C199.209 188.276 199.166 188.318 199.081 188.318H198.429C198.343 188.318 198.301 188.276 198.301 188.191V180.397C198.301 180.38 198.292 180.367 198.275 180.359C198.266 180.35 198.254 180.35 198.237 180.359L196.88 180.909L196.829 180.922C196.778 180.922 196.744 180.888 196.727 180.82L196.663 180.333V180.308C196.663 180.265 196.692 180.222 196.752 180.18L198.224 179.399Z" fill="black"/>
<path d="M183.719 182.676C183.505 182.676 183.33 182.607 183.194 182.471C183.066 182.334 183.002 182.164 183.002 181.959C183.002 181.746 183.066 181.575 183.194 181.447C183.33 181.311 183.505 181.242 183.719 181.242C183.923 181.242 184.094 181.311 184.23 181.447C184.367 181.575 184.435 181.746 184.435 181.959C184.435 182.164 184.367 182.334 184.23 182.471C184.094 182.607 183.923 182.676 183.719 182.676ZM183.719 186.988C183.505 186.988 183.33 186.92 183.194 186.783C183.066 186.647 183.002 186.476 183.002 186.271C183.002 186.058 183.066 185.888 183.194 185.76C183.33 185.623 183.505 185.555 183.719 185.555C183.923 185.555 184.094 185.623 184.23 185.76C184.367 185.888 184.435 186.058 184.435 186.271C184.435 186.476 184.367 186.647 184.23 186.783C184.094 186.92 183.923 186.988 183.719 186.988Z" fill="black"/>
<path d="M169.138 188.446C168.319 188.446 167.666 188.212 167.18 187.743C166.694 187.273 166.451 186.646 166.451 185.861V181.818C166.451 181.033 166.694 180.41 167.18 179.949C167.666 179.48 168.319 179.246 169.138 179.246C169.966 179.246 170.627 179.48 171.122 179.949C171.616 180.419 171.864 181.041 171.864 181.818V185.861C171.864 186.646 171.616 187.273 171.122 187.743C170.627 188.212 169.966 188.446 169.138 188.446ZM169.138 187.653C169.684 187.653 170.123 187.495 170.456 187.18C170.789 186.864 170.955 186.442 170.955 185.913V181.779C170.955 181.259 170.789 180.841 170.456 180.525C170.132 180.21 169.693 180.052 169.138 180.052C168.601 180.052 168.17 180.21 167.846 180.525C167.521 180.841 167.359 181.259 167.359 181.779V185.913C167.359 186.442 167.521 186.864 167.846 187.18C168.17 187.495 168.601 187.653 169.138 187.653ZM178.663 180.935C178.766 181.276 178.817 181.677 178.817 182.138V186.13C178.817 186.83 178.586 187.389 178.126 187.807C177.665 188.216 177.064 188.421 176.321 188.421C175.605 188.421 175.02 188.22 174.568 187.819C174.125 187.41 173.903 186.881 173.903 186.233V186.053C173.903 185.968 173.945 185.925 174.031 185.925H174.683C174.769 185.925 174.811 185.968 174.811 186.053V186.156C174.811 186.591 174.952 186.945 175.234 187.218C175.515 187.491 175.878 187.627 176.321 187.627C176.782 187.627 177.162 187.487 177.46 187.205C177.759 186.915 177.908 186.535 177.908 186.066V184.198C177.908 184.181 177.9 184.172 177.883 184.172C177.866 184.164 177.853 184.168 177.844 184.185C177.469 184.688 176.906 184.94 176.155 184.94C175.618 184.94 175.165 184.821 174.799 184.582C174.44 184.343 174.167 184.006 173.98 183.571C173.8 183.213 173.711 182.726 173.711 182.112C173.711 181.592 173.775 181.165 173.903 180.832C174.082 180.338 174.368 179.954 174.76 179.681C175.161 179.408 175.652 179.271 176.232 179.271C176.846 179.271 177.362 179.42 177.78 179.719C178.207 180.009 178.501 180.414 178.663 180.935ZM176.27 184.147C176.646 184.147 176.961 184.057 177.217 183.878C177.482 183.69 177.665 183.434 177.767 183.11C177.861 182.863 177.908 182.517 177.908 182.074C177.908 181.707 177.87 181.395 177.793 181.139C177.691 180.815 177.507 180.555 177.243 180.359C176.978 180.163 176.654 180.065 176.27 180.065C175.903 180.065 175.588 180.158 175.323 180.346C175.059 180.525 174.871 180.79 174.76 181.139C174.666 181.378 174.619 181.703 174.619 182.112C174.619 182.547 174.675 182.888 174.786 183.136C174.888 183.443 175.067 183.69 175.323 183.878C175.579 184.057 175.895 184.147 176.27 184.147Z" fill="black"/>
<g clip-path="url(#clip1_2_281)">
<rect x="210.483" y="171.41" width="58.7492" height="20.9403" rx="5.18272" fill="#767680" fill-opacity="0.12"/>
<g filter="url(#filter1_dd_2_281)">
<rect x="211.647" y="172.574" width="28.2112" height="18.6136" rx="4.03101" fill="white"/>
<rect x="211.501" y="172.428" width="28.5021" height="18.9044" rx="4.17643" stroke="black" stroke-opacity="0.04" stroke-width="0.290837"/>
<path d="M224.772 185.227C224.726 185.227 224.696 185.207 224.681 185.167L224.378 184.214C224.373 184.199 224.363 184.191 224.348 184.191H222.087C222.072 184.191 222.062 184.199 222.057 184.214L221.754 185.167C221.739 185.207 221.709 185.227 221.664 185.227H221.255C221.2 185.227 221.18 185.2 221.195 185.144L222.866 179.994C222.881 179.954 222.911 179.934 222.957 179.934H223.471C223.516 179.934 223.547 179.954 223.562 179.994L225.24 185.144L225.248 185.174C225.248 185.21 225.225 185.227 225.18 185.227H224.772ZM222.208 183.715C222.203 183.725 222.203 183.735 222.208 183.745C222.218 183.75 222.228 183.753 222.238 183.753H224.189C224.199 183.753 224.207 183.75 224.212 183.745C224.222 183.735 224.225 183.725 224.22 183.715L223.236 180.63C223.231 180.62 223.224 180.615 223.214 180.615C223.204 180.615 223.196 180.62 223.191 180.63L222.208 183.715ZM229.613 179.987C229.638 179.952 229.669 179.934 229.704 179.934H230.097C230.147 179.934 230.173 179.959 230.173 180.01V185.152C230.173 185.202 230.147 185.227 230.097 185.227H229.711C229.661 185.227 229.636 185.202 229.636 185.152V180.947C229.636 180.932 229.631 180.922 229.621 180.917C229.611 180.912 229.603 180.917 229.598 180.932L228.365 182.823C228.34 182.858 228.31 182.876 228.275 182.876H228.078C228.043 182.876 228.013 182.86 227.987 182.83L226.755 180.955C226.75 180.94 226.742 180.935 226.732 180.94C226.722 180.945 226.717 180.955 226.717 180.97V185.152C226.717 185.202 226.692 185.227 226.641 185.227H226.256C226.205 185.227 226.18 185.202 226.18 185.152V180.01C226.18 179.959 226.205 179.934 226.256 179.934H226.649C226.689 179.934 226.719 179.949 226.74 179.979L228.161 182.134C228.166 182.14 228.174 182.142 228.184 182.142C228.194 182.142 228.202 182.14 228.207 182.134L229.613 179.987Z" fill="black"/>
</g>
<path d="M251.915 179.926C252.358 179.926 252.714 180.063 252.981 180.335C253.253 180.607 253.389 180.965 253.389 181.409C253.389 181.847 253.251 182.2 252.973 182.467C252.701 182.734 252.341 182.868 251.892 182.868H250.418C250.397 182.868 250.387 182.878 250.387 182.898V185.152C250.387 185.202 250.362 185.227 250.312 185.227H249.926C249.876 185.227 249.85 185.202 249.85 185.152V180.002C249.85 179.952 249.876 179.926 249.926 179.926H251.915ZM251.854 182.422C252.152 182.422 252.394 182.331 252.58 182.15C252.767 181.963 252.86 181.719 252.86 181.416C252.86 181.109 252.767 180.862 252.58 180.675C252.394 180.489 252.152 180.395 251.854 180.395H250.418C250.397 180.395 250.387 180.405 250.387 180.426V182.392C250.387 182.412 250.397 182.422 250.418 182.422H251.854ZM257.765 179.987C257.79 179.952 257.82 179.934 257.856 179.934H258.249C258.299 179.934 258.324 179.959 258.324 180.01V185.152C258.324 185.202 258.299 185.227 258.249 185.227H257.863C257.813 185.227 257.788 185.202 257.788 185.152V180.947C257.788 180.932 257.783 180.922 257.772 180.917C257.762 180.912 257.755 180.917 257.75 180.932L256.517 182.823C256.492 182.858 256.462 182.876 256.426 182.876H256.23C256.195 182.876 256.164 182.86 256.139 182.83L254.907 180.955C254.902 180.94 254.894 180.935 254.884 180.94C254.874 180.945 254.869 180.955 254.869 180.97V185.152C254.869 185.202 254.844 185.227 254.793 185.227H254.407C254.357 185.227 254.332 185.202 254.332 185.152V180.01C254.332 179.959 254.357 179.934 254.407 179.934H254.801C254.841 179.934 254.871 179.949 254.891 179.979L256.313 182.134C256.318 182.14 256.326 182.142 256.336 182.142C256.346 182.142 256.353 182.14 256.358 182.134L257.765 179.987Z" fill="black"/>
</g>
</g>
<defs>
<filter id="filter0_dd_2_281" x="0.453022" y="0.00988388" width="312.987" height="260.59" filterUnits="userSpaceOnUse" color-interpolation-filters="sRGB">
<feFlood flood-opacity="0" result="BackgroundImageFix"/>
<feColorMatrix in="SourceAlpha" type="matrix" values="0 0 0 0 0 0 0 0 0 0 0 0 0 0 0 0 0 0 127 0" result="hardAlpha"/>
<feOffset dy="5.81675"/>
<feGaussianBlur stdDeviation="17.4502"/>
<feColorMatrix type="matrix" values="0 0 0 0 0 0 0 0 0 0 0 0 0 0 0 0 0 0 0.1 0"/>
<feBlend mode="normal" in2="BackgroundImageFix" result="effect1_dropShadow_2_281"/>
<feColorMatrix in="SourceAlpha" type="matrix" values="0 0 0 0 0 0 0 0 0 0 0 0 0 0 0 0 0 0 127 0" result="hardAlpha"/>
<feOffset dy="2.61069"/>
<feGaussianBlur stdDeviation="3.48092"/>
<feComposite in2="hardAlpha" operator="out"/>
<feColorMatrix type="matrix" values="0 0 0 0 0 0 0 0 0 0 0 0 0 0 0 0 0 0 0.06 0"/>
<feBlend mode="normal" in2="effect1_dropShadow_2_281" result="effect2_dropShadow_2_281"/>
<feBlend mode="normal" in="SourceGraphic" in2="effect2_dropShadow_2_281" result="shape"/>
</filter>
<filter id="filter1_dd_2_281" x="206.702" y="169.374" width="38.0997" height="28.5021" filterUnits="userSpaceOnUse" color-interpolation-filters="sRGB">
<feFlood flood-opacity="0" result="BackgroundImageFix"/>
<feColorMatrix in="SourceAlpha" type="matrix" values="0 0 0 0 0 0 0 0 0 0 0 0 0 0 0 0 0 0 127 0" result="hardAlpha"/>
<feOffset dy="1.74502"/>
<feGaussianBlur stdDeviation="0.290837"/>
<feColorMatrix type="matrix" values="0 0 0 0 0 0 0 0 0 0 0 0 0 0 0 0 0 0 0.04 0"/>
<feBlend mode="normal" in2="BackgroundImageFix" result="effect1_dropShadow_2_281"/>
<feColorMatrix in="SourceAlpha" type="matrix" values="0 0 0 0 0 0 0 0 0 0 0 0 0 0 0 0 0 0 127 0" result="hardAlpha"/>
<feOffset dy="1.74502"/>
<feGaussianBlur stdDeviation="2.3267"/>
<feColorMatrix type="matrix" values="0 0 0 0 0 0 0 0 0 0 0 0 0 0 0 0 0 0 0.12 0"/>
<feBlend mode="normal" in2="effect1_dropShadow_2_281" result="effect2_dropShadow_2_281"/>
<feBlend mode="normal" in="SourceGraphic" in2="effect2_dropShadow_2_281" result="shape"/>
</filter>
<clipPath id="clip0_2_281">
<rect width="61.5451" height="16" fill="white" transform="translate(44.6611 38.5433)"/>
</clipPath>
<clipPath id="clip1_2_281">
<rect x="210.483" y="171.41" width="58.7492" height="20.9403" rx="5.18272" fill="white"/>
</clipPath>
</defs>
</svg>
