<svg width="129" height="49" viewBox="0 0 129 49" fill="none" xmlns="http://www.w3.org/2000/svg">
<g clip-path="url(#clip0_2_253)">
<path d="M45.071 24.8067C45.0751 23.0143 44.525 21.2645 43.4959 19.7969C42.4668 18.3293 41.0091 17.2159 39.3226 16.6091C39.4761 15.8268 39.5534 15.0314 39.5536 14.2342C39.5551 11.5954 38.7198 9.02412 37.1678 6.89C35.6158 4.75587 33.427 3.16885 30.9162 2.35711C28.4054 1.54537 25.7018 1.55072 23.1942 2.37239C20.6866 3.19406 18.5041 4.78973 16.9606 6.92998C15.8218 6.04752 14.4265 5.56023 12.9859 5.54191C11.5454 5.5236 10.1381 5.97525 8.97723 6.82847C7.81639 7.68169 6.96524 8.88998 6.5527 10.2703C6.14016 11.6507 6.18871 13.1278 6.69099 14.4781C5.00044 15.0943 3.53915 16.2134 2.50366 17.685C1.46817 19.1565 0.908157 20.9099 0.898955 22.7092C0.894264 24.5078 1.44725 26.2636 2.48177 27.7349C3.51629 29.2063 4.98147 30.3207 6.67559 30.9248C6.52563 31.7067 6.44913 32.501 6.44709 33.2971C6.44457 35.9328 7.27917 38.5013 8.83056 40.6321C10.3819 42.7629 12.5699 44.3459 15.0791 45.153C17.5882 45.9601 20.2888 45.9494 22.7915 45.1226C25.2942 44.2958 27.4697 42.6955 29.0042 40.5526C30.1396 41.4372 31.5326 41.9275 32.9718 41.949C34.4111 41.9704 35.8181 41.522 36.9794 40.6716C38.1407 39.8212 38.993 38.6153 39.4071 37.2367C39.8212 35.8582 39.7744 34.3822 39.2738 33.0327C40.9652 32.4175 42.4275 31.2987 43.4636 29.827C44.4996 28.3553 45.0597 26.6014 45.0684 24.8016" fill="#EBF1F9"/>
<path d="M18.2655 20.7044L27.9318 25.1177L37.6878 16.5735C37.8284 15.8684 37.898 15.1511 37.8958 14.4322C37.8953 12.1049 37.1499 9.83881 35.7688 7.96556C34.3877 6.09232 32.4433 4.71026 30.2202 4.02163C27.997 3.333 25.6119 3.37394 23.4137 4.13847C21.2155 4.90299 19.3197 6.35096 18.0036 8.2705L16.3785 16.6762L18.2655 20.7044Z" fill="#184E7F" fill-opacity="0.6"/>
<path d="M8.25949 30.9406C8.11696 31.6567 8.04558 32.3851 8.04639 33.1152C8.04644 35.4522 8.79561 37.7277 10.1839 39.6077C11.5723 41.4876 13.5267 42.8731 15.7603 43.5606C17.9939 44.2482 20.3891 44.2017 22.5943 43.428C24.7995 42.6542 26.6987 41.194 28.013 39.2615L29.6228 30.8739L27.4739 26.766L17.7717 22.345L8.25949 30.9406Z" fill="#184E7F" fill-opacity="0.6"/>
<path d="M8.1997 14.2142L14.8236 15.7778L16.2742 8.24503C15.3732 7.56187 14.2752 7.18893 13.1446 7.18204C12.0139 7.17516 10.9115 7.5347 10.0023 8.20684C9.09309 8.87898 8.42608 9.82755 8.10112 10.9105C7.77617 11.9935 7.81075 13.1526 8.1997 14.2142Z" fill="#184E7F" fill-opacity="0.6"/>
<path d="M7.62277 15.7904C6.16943 16.2808 4.90505 17.212 4.00548 18.4544C3.1059 19.6967 2.61587 21.1886 2.60352 22.7224C2.60247 24.2047 3.05264 25.6523 3.89418 26.8727C4.73571 28.093 5.92875 29.0283 7.31468 29.5542L16.6087 21.1537L14.9013 17.508L7.62277 15.7904Z" fill="#184E7F" fill-opacity="0.6"/>
<path d="M29.71 39.2607C30.6094 39.9404 31.7047 40.3109 32.8321 40.3169C33.9595 40.3229 35.0585 39.9641 35.9652 39.294C36.8719 38.6239 37.5374 37.6785 37.8625 36.5989C38.1876 35.5194 38.1548 34.3637 37.769 33.3044L31.1503 31.7639L29.71 39.2607Z" fill="#184E7F" fill-opacity="0.6"/>
<path d="M31.0582 30.0214L38.3445 31.7236C39.7987 31.2345 41.0639 30.3037 41.9637 29.061C42.8635 27.8184 43.3529 26.3258 43.3638 24.7916C43.3624 23.3124 42.9114 21.8685 42.0704 20.6516C41.2295 19.4346 40.0384 18.5021 38.6552 17.9778L29.125 26.3218L31.0582 30.0214Z" fill="#184E7F" fill-opacity="0.6"/>
<path d="M62.6588 32.6653L63.542 32.5754L63.6036 34.3726C61.6383 34.6694 59.6551 34.8323 57.6678 34.8604C55.4769 34.8604 53.9245 34.2262 53.0105 32.9579C52.0965 31.6897 51.6404 29.7162 51.6421 27.0375C51.6421 21.7025 53.7628 19.0341 58.0041 19.0324C60.058 19.0324 61.5899 19.6058 62.5997 20.7526C63.6096 21.8993 64.1162 23.6965 64.1196 26.1441L63.999 27.8796H53.9553C53.9553 29.5638 54.26 30.8116 54.8693 31.6229C55.4786 32.4342 56.5381 32.8398 58.0477 32.8398C59.5608 32.845 61.0978 32.7868 62.6588 32.6653ZM61.8372 26.0619C61.8372 24.1946 61.5385 22.8758 60.9412 22.1056C60.3438 21.3354 59.3699 20.9494 58.0195 20.9477C56.6691 20.9477 55.6541 21.3533 54.9746 22.1646C54.2951 22.9759 53.945 24.275 53.9245 26.0619H61.8372Z" fill="#184E7F" fill-opacity="0.6"/>
<path d="M67.3032 34.7397V14.714H69.5856V34.7397H67.3032Z" fill="#184E7F" fill-opacity="0.6"/>
<path d="M83.9606 23.931V31.6075C83.9606 32.3777 85.8553 32.3366 85.8553 32.3366L85.7398 34.3546C84.1351 34.3546 82.8078 34.4881 82.0119 33.7153C80.2884 34.4808 78.4215 34.8703 76.5357 34.8578C75.1373 34.8578 74.0718 34.4616 73.3393 33.6691C72.6067 32.8766 72.2413 31.7376 72.243 30.2519C72.243 28.7697 72.6187 27.6785 73.3701 26.9785C74.1215 26.2784 75.2982 25.8505 76.9002 25.6948L81.6782 25.2404V23.931C81.6782 22.904 81.4556 22.1629 81.0106 21.7076C80.7668 21.4787 80.4791 21.3016 80.1649 21.1869C79.8508 21.0721 79.5166 21.0222 79.1826 21.0401H73.1852V19.0298H79.0312C80.7564 19.0298 82.0093 19.4261 82.7898 20.2185C83.5703 21.011 83.9606 22.2485 83.9606 23.931ZM74.5819 30.1389C74.5819 32.0063 75.3521 32.94 76.8925 32.94C78.2822 32.9384 79.6616 32.7014 80.9721 32.2391L81.6704 31.9952V26.9733L77.1749 27.3995C76.261 27.4817 75.6011 27.7453 75.1955 28.1903C74.7898 28.6353 74.5853 29.2849 74.5819 30.1389Z" fill="#184E7F" fill-opacity="0.6"/>
<path d="M92.8718 21.0709C90.6587 21.0709 89.5521 21.8411 89.5521 23.3816C89.5521 24.0936 89.8089 24.5959 90.3223 24.8886C90.8358 25.1813 91.992 25.486 93.7909 25.8026C95.5983 26.1193 96.8769 26.5608 97.6266 27.1274C98.3763 27.6939 98.7519 28.7585 98.7537 30.3212C98.7537 31.8856 98.2513 33.0324 97.2466 33.7615C96.2419 34.4907 94.7759 34.8561 92.8486 34.8578C91.5906 34.8578 87.3904 34.3905 87.3904 34.3905L87.5136 32.4136C89.927 32.6447 91.6702 32.8167 92.8486 32.8167C94.0271 32.8167 94.9231 32.6293 95.5418 32.2545C96.1606 31.8796 96.4687 31.2506 96.4687 30.3674C96.4687 29.4843 96.2119 28.886 95.6779 28.5703C95.1439 28.2545 93.9937 27.9567 92.2094 27.6717C90.425 27.3867 89.1542 26.9708 88.4045 26.4239C87.6548 25.8771 87.2774 24.8604 87.2774 23.379C87.2774 21.8976 87.7909 20.8116 88.8461 20.0927C89.9013 19.3739 91.1953 19.0273 92.7562 19.0273C93.9937 19.0273 98.289 19.343 98.289 19.343V21.3328C96.0219 21.2326 94.1683 21.0709 92.8718 21.0709Z" fill="#184E7F" fill-opacity="0.6"/>
<path d="M109.755 21.3122H104.916V28.5882C104.916 30.3323 105.042 31.4783 105.296 32.026C105.552 32.5754 106.153 32.8475 107.106 32.8475L109.814 32.6653L109.968 34.5523C108.942 34.7419 107.904 34.8543 106.862 34.8886C105.28 34.8886 104.185 34.5027 103.575 33.7307C102.966 32.9588 102.662 31.4877 102.664 29.3174V21.3122H100.512V19.3354H102.674V14.6781H104.926V19.3354H109.755V21.3122Z" fill="#184E7F" fill-opacity="0.6"/>
<path d="M112.928 17.3918V14.7423H115.211V17.3918H112.928ZM112.928 34.7397V19.3354H115.211V34.7397H112.928Z" fill="#184E7F" fill-opacity="0.6"/>
<path d="M125.098 19.0298C126.238 19.0785 127.373 19.2011 128.497 19.397L129.226 19.4868L129.136 21.3431C127.944 21.1919 126.744 21.1011 125.542 21.0709C123.817 21.0709 122.645 21.4817 122.027 22.3033C121.409 23.1248 121.1 24.6464 121.098 26.8681C121.098 29.0932 121.387 30.6404 121.966 31.5099C122.544 32.3794 123.751 32.8159 125.586 32.8193L129.18 32.5472L129.272 34.4342C127.873 34.6712 126.46 34.8136 125.041 34.8604C122.669 34.8604 121.031 34.2511 120.127 33.0324C119.224 31.8137 118.772 29.7598 118.772 26.8707C118.772 23.9798 119.259 21.9507 120.233 20.7834C121.206 19.6161 122.828 19.0315 125.098 19.0298Z" fill="#184E7F" fill-opacity="0.6"/>
</g>
<defs>
<clipPath id="clip0_2_253">
<rect width="128" height="48" fill="white" transform="translate(0.899963 0.754822)"/>
</clipPath>
</defs>
</svg>
