<svg width="40" height="40" viewBox="0 0 40 40" fill="none" xmlns="http://www.w3.org/2000/svg">
<g clip-path="url(#clip0_95_2602)">
<path d="M28.5117 11.1969C28.8668 11.443 29.0531 11.8684 28.9863 12.2938L26.7363 26.9188C26.6836 27.2598 26.4761 27.5586 26.1738 27.7274C25.8715 27.8961 25.5094 27.9172 25.1894 27.7836L20.9847 26.0363L18.5765 28.6414C18.2636 28.9824 17.7715 29.0949 17.339 28.9262C16.9066 28.7574 16.6254 28.3391 16.6254 27.875V24.9359C16.6254 24.7953 16.6781 24.6617 16.773 24.5598L22.6652 18.1297C22.8691 17.9082 22.8621 17.5672 22.6511 17.3563C22.4402 17.1453 22.0992 17.1313 21.8777 17.3317L14.7269 23.6844L11.6226 22.1305C11.25 21.9442 11.0109 21.5715 11.0004 21.1567C10.9898 20.7418 11.2078 20.3551 11.5664 20.1477L27.3164 11.1477C27.6926 10.9332 28.1566 10.9543 28.5117 11.1969Z" fill="#B0C1D4"/>
</g>
<defs>
<clipPath id="clip0_95_2602">
<rect width="18" height="18" fill="white" transform="translate(11 11)"/>
</clipPath>
</defs>
</svg>
